<svg width="23" height="131" viewBox="0 0 23 131" fill="none" xmlns="http://www.w3.org/2000/svg">
<path d="M10.4393 130.061C11.0251 130.646 11.9749 130.646 12.5607 130.061L22.1066 120.515C22.6924 119.929 22.6924 118.979 22.1066 118.393C21.5208 117.808 20.5711 117.808 19.9853 118.393L11.5 126.879L3.01472 118.393C2.42894 117.808 1.47919 117.808 0.893402 118.393C0.307615 118.979 0.307615 119.929 0.893402 120.515L10.4393 130.061ZM10 38L10 129L13 129L13 38L10 38Z" fill="#F64444"/>
<rect x="10" y="29" width="3" height="6" fill="#F74444"/>
<rect x="10" y="18" width="3" height="8" fill="#F74444"/>
<rect x="10" width="3" height="15" fill="#F74444"/>
</svg>
