<svg width="65" height="70" viewBox="0 0 65 70" fill="none" xmlns="http://www.w3.org/2000/svg">
<path d="M8.5061 20.3301C9.90259 21.123 29.301 32.5117 30.0247 32.9219C30.7483 33.332 31.4846 33.5234 32.6272 33.5234C33.7698 33.5234 34.5061 33.332 35.2297 32.9219C35.9534 32.5117 55.3518 21.123 56.7483 20.3301C57.2688 20.043 58.1448 19.5234 58.3352 18.9355C58.6653 17.8965 58.3098 17.5 56.9006 17.5H32.6272H8.35376C6.94458 17.5 6.58911 17.9102 6.91919 18.9355C7.10962 19.5371 7.98559 20.043 8.5061 20.3301Z" fill="white"/>
<path d="M57.8525 20.9453C56.8115 21.5195 47.4678 28.6835 41.2852 32.9902L51.7207 45.6367C51.9746 45.9101 52.0889 46.2382 51.9492 46.4023C51.7969 46.5527 51.4668 46.4706 51.2002 46.2109L38.6826 34.8359C36.791 36.1484 35.458 37.0507 35.2295 37.1874C34.252 37.7206 33.5664 37.789 32.627 37.789C31.6875 37.789 31.002 37.7206 30.0244 37.1874C29.7832 37.0507 28.4629 36.1484 26.5713 34.8359L14.0537 46.2109C13.7998 46.4843 13.457 46.5663 13.3047 46.4023C13.1523 46.2519 13.2666 45.9101 13.5205 45.6367L23.9434 32.9902C17.7607 28.6835 8.31543 21.5195 7.27441 20.9453C6.15723 20.33 6.09375 21.0546 6.09375 21.6152C6.09375 22.1757 6.09375 49.6425 6.09375 49.6425C6.09375 50.914 7.83301 52.4999 9.07715 52.4999H32.627H56.1768C57.4209 52.4999 58.9062 50.9003 58.9062 49.6425C58.9062 49.6425 58.9062 22.1621 58.9062 21.6152C58.9062 21.041 58.9824 20.33 57.8525 20.9453Z" fill="white"/>
</svg>
