<svg width="92" height="74" viewBox="0 0 92 74" fill="none" xmlns="http://www.w3.org/2000/svg">
<path d="M41.0711 54.197C39.7641 54.197 38.5099 54.8073 37.586 55.8935C36.662 56.9796 36.1426 58.4537 36.1426 59.9896C36.1426 61.5255 36.6618 62.9999 37.586 64.0858C38.5101 65.1718 39.7643 65.7823 41.0711 65.7823C42.3779 65.7823 43.6323 65.172 44.5562 64.0858C45.4802 62.9997 45.9996 61.5255 45.9996 59.9896C45.9996 58.4537 45.4803 56.9794 44.5562 55.8935C43.6321 54.8075 42.3779 54.197 41.0711 54.197ZM41.0711 61.9207C40.4066 61.9207 39.8074 61.45 39.5536 60.7285C39.2991 60.007 39.4392 59.1769 39.9093 58.6243C40.3795 58.0718 41.0857 57.9071 41.6996 58.2063C42.3135 58.5045 42.7139 59.2088 42.7139 59.9898C42.7139 60.5018 42.5409 60.9931 42.2328 61.3552C41.9248 61.7172 41.5067 61.9207 41.0711 61.9207Z" fill="#C7C01D"/>
<path d="M60.7859 54.197C59.479 54.197 58.2247 54.8073 57.3008 55.8935C56.3768 56.9796 55.8574 58.4537 55.8574 59.9896C55.8574 61.5255 56.3767 62.9999 57.3008 64.0858C58.2249 65.1718 59.4791 65.7823 60.7859 65.7823C62.0927 65.7823 63.3471 65.172 64.2711 64.0858C65.195 62.9997 65.7144 61.5255 65.7144 59.9896C65.7144 58.4537 65.1952 56.9794 64.2711 55.8935C63.3469 54.8075 62.0927 54.197 60.7859 54.197ZM60.7859 61.9207C60.1214 61.9207 59.5222 61.45 59.2685 60.7285C59.014 60.007 59.1541 59.1769 59.6242 58.6243C60.0943 58.0718 60.8006 57.9071 61.4145 58.2063C62.0283 58.5045 62.4288 59.2088 62.4288 59.9898C62.4288 60.5018 62.2557 60.9931 61.9477 61.3552C61.6396 61.7172 61.2216 61.9207 60.7859 61.9207Z" fill="white"/>
<path d="M80.5001 46.4734H78.6768C80.8638 43.9547 82.1056 40.5152 82.1276 36.9162C82.1503 33.3181 80.9505 29.8572 78.7942 27.3023C76.6387 24.7464 73.705 23.3069 70.6429 23.3025H68.8196C71.0066 20.7837 72.2484 17.3443 72.2704 13.7453C72.2932 10.1472 71.0933 6.68632 68.937 4.13134C66.7816 1.57547 63.8479 0.136005 60.7858 0.131592H31.2142C28.1521 0.135902 25.2184 1.57547 23.0629 4.13134C20.9067 6.68632 19.7068 10.1474 19.7295 13.7453C19.7515 17.3443 20.9932 20.7837 23.1803 23.3025H21.357C18.2949 23.3068 15.3612 24.7464 13.2058 27.3023C11.0496 29.8572 9.84962 33.3183 9.87234 36.9162C9.89434 40.5152 11.136 43.9547 13.3231 46.4734H11.4998C7.39116 46.4734 3.59492 49.0501 1.54068 53.2316C-0.51356 57.4132 -0.51356 62.5664 1.54068 66.748C3.59492 70.9296 7.39116 73.5062 11.4998 73.5062H80.5002C84.6088 73.5062 88.4051 70.9296 90.4593 66.748C92.5136 62.5664 92.5136 57.4132 90.4593 53.2316C88.4051 49.0501 84.6088 46.4734 80.5001 46.4734ZM60.7857 69.6444C58.6074 69.6444 56.518 68.6272 54.9769 66.8171C53.4367 65.006 52.5714 62.5501 52.5714 59.9898C52.5714 57.4295 53.4368 54.9739 54.9769 53.1626C56.5178 51.3523 58.6074 50.3353 60.7857 50.3353C62.9641 50.3353 65.0534 51.3525 66.5945 53.1626C68.1347 54.9736 69 57.4295 69 59.9898C69 62.5501 68.1346 65.0058 66.5945 66.8171C65.0536 68.6273 62.9641 69.6444 60.7857 69.6444ZM41.0713 69.6444C38.893 69.6444 36.8036 68.6272 35.2625 66.8171C33.7224 65.006 32.857 62.5501 32.857 59.9898C32.857 57.4295 33.7224 54.9739 35.2625 53.1626C36.8034 51.3523 38.893 50.3353 41.0713 50.3353C43.2497 50.3353 45.339 51.3525 46.8801 53.1626C48.4203 54.9736 49.2857 57.4295 49.2857 59.9898C49.2857 62.5501 48.4202 65.0058 46.8801 66.8171C45.3392 68.6273 43.2497 69.6444 41.0713 69.6444ZM49.1052 50.3353H52.7526C52.0507 51.1499 51.4375 52.0645 50.9286 53.0575C50.4196 52.0645 49.8071 51.1499 49.1052 50.3353ZM42.7142 36.8189C42.7142 34.2586 43.5796 31.8029 45.1197 29.9916C46.6606 28.1814 48.7502 27.1643 50.9285 27.1643C53.1069 27.1643 55.1962 28.1815 56.7373 29.9916C58.2775 31.8027 59.1428 34.2586 59.1428 36.8189C59.1428 39.3792 58.2774 41.8348 56.7373 43.6461C55.1964 45.4564 53.1069 46.4734 50.9285 46.4734C48.7502 46.4734 46.6608 45.4563 45.1197 43.6461C43.5795 41.8351 42.7142 39.3792 42.7142 36.8189ZM62.6088 27.1643C61.9069 27.9789 61.2945 28.8935 60.7855 29.8866C60.2766 28.8936 59.6641 27.979 58.9623 27.1643H62.6088ZM58.9622 46.4734C59.6641 45.6588 60.2765 44.7443 60.7855 43.7512C61.2945 44.7442 61.9069 45.6588 62.6088 46.4734H58.9622ZM68.8194 50.3353H72.4668H72.466C71.7641 51.1499 71.1517 52.0645 70.6428 53.0575C70.1338 52.0645 69.5213 51.1499 68.8194 50.3353ZM78.857 36.8189C78.857 39.3792 77.9916 41.8348 76.4515 43.6461C74.9106 45.4564 72.8211 46.4734 70.6427 46.4734C68.4644 46.4734 66.375 45.4563 64.8339 43.6461C63.2937 41.8351 62.4284 39.3792 62.4284 36.8189C62.4284 34.2586 63.2938 31.8029 64.8339 29.9916C66.3748 28.1814 68.4644 27.1643 70.6427 27.1643C72.8211 27.1643 74.9104 28.1815 76.4515 29.9916C77.9917 31.8027 78.857 34.2586 78.857 36.8189ZM68.9998 13.648C68.9998 16.2082 68.1344 18.6639 66.5943 20.4752C65.0534 22.2854 62.9639 23.3025 60.7855 23.3025C58.6072 23.3025 56.5178 22.2853 54.9767 20.4752C53.4365 18.6641 52.5712 16.2082 52.5712 13.648C52.5712 11.0877 53.4366 8.63201 54.9767 6.82071C56.5176 5.01048 58.6072 3.99341 60.7855 3.99341C62.9639 3.99341 65.0532 5.01059 66.5943 6.82071C68.1345 8.63179 68.9998 11.0877 68.9998 13.648ZM24.6425 19.4407H26.2853C27.1926 19.4407 27.9282 18.5761 27.9282 17.5098C27.9282 16.4435 27.1926 15.5789 26.2853 15.5789H23.1639C23.059 14.9427 23.004 14.2962 22.9996 13.648C22.9996 11.0877 23.8651 8.63201 25.4052 6.82071C26.9461 5.01048 29.0356 3.99341 31.2139 3.99341H52.7514C51.7797 5.10195 50.989 6.41135 50.4191 7.85523H47.6424C46.7352 7.85523 45.9995 8.71984 45.9995 9.78615C45.9995 10.8524 46.7352 11.7171 47.6424 11.7171H49.4166C49.3315 12.3558 49.2875 13.0015 49.2853 13.648C49.2889 17.2832 50.5387 20.763 52.7514 23.3025H31.2139C28.6285 23.3025 26.1937 21.8716 24.6425 19.4407ZM14.7853 42.6116H16.4282C17.889 42.3845 18.071 41.9301 18.071 40.6807C18.071 39.4313 17.3354 38.7498 16.4282 38.7498H13.3067C13.2018 38.1136 13.1468 37.4671 13.1424 36.8189C13.1424 34.2586 14.0079 31.8029 15.548 29.9916C17.0889 28.1814 19.1784 27.1643 21.3568 27.1643H42.8943C41.9225 28.2729 41.1318 29.5823 40.5619 31.0262H37.7852C36.878 31.0262 36.1424 31.8908 36.1424 32.9571C36.1424 34.0234 36.878 34.888 37.7852 34.888H39.5594C39.4743 35.5267 39.4303 36.1724 39.4281 36.8189C39.4318 40.4541 40.6815 43.9339 42.8942 46.4734H21.3567C18.7713 46.4734 16.3365 45.0425 14.7853 42.6116ZM11.4996 69.6444C8.91416 69.6444 6.47934 68.2134 4.9281 65.7826H6.57096C7.4782 65.7826 8.21383 64.9179 8.21383 63.8516C8.21383 62.7853 7.4782 61.9207 6.57096 61.9207H3.44952C3.34464 61.2846 3.28963 60.6381 3.28523 59.9898C3.28523 57.4295 4.15068 54.9739 5.69077 53.1626C7.23168 51.3523 9.32121 50.3353 11.4996 50.3353H33.0371C32.0653 51.4438 31.2746 52.7532 30.7048 54.1971H27.928C27.0208 54.1971 26.2852 55.0617 26.2852 56.128C26.2852 57.1943 27.0208 58.0589 27.928 58.0589H29.7022C29.6171 58.6977 29.5731 59.3433 29.5709 59.9898C29.5746 63.625 30.8243 67.1048 33.0371 69.6444H11.4996ZM49.1052 69.6444C49.8071 68.8298 50.4195 67.9152 50.9285 66.9221C51.4375 67.9152 52.0499 68.8298 52.7518 69.6444H49.1052ZM68.8196 69.6444C69.5215 68.8298 70.1339 67.9152 70.6429 66.9221C71.1519 67.9152 71.7643 68.8298 72.4662 69.6444H68.8196ZM80.5001 69.6444C78.3218 69.6444 76.2324 68.6272 74.6913 66.8171C73.1511 65.006 72.2858 62.5501 72.2858 59.9898C72.2858 57.4295 73.1512 54.9739 74.6913 53.1626C76.2322 51.3523 78.3218 50.3353 80.5001 50.3353C82.6784 50.3353 84.7678 51.3525 86.3089 53.1626C87.8491 54.9736 88.7144 57.4295 88.7144 59.9898C88.7144 62.5501 87.849 65.0058 86.3089 66.8171C84.768 68.6273 82.6784 69.6444 80.5001 69.6444Z" fill="white"/>
<path d="M80.5008 54.197C79.1938 54.197 77.9396 54.8073 77.0156 55.8935C76.0917 56.9796 75.5723 58.4537 75.5723 59.9896C75.5723 61.5255 76.0915 62.9999 77.0156 64.0858C77.9398 65.1718 79.194 65.7823 80.5008 65.7823C81.8075 65.7823 83.0619 65.172 83.9859 64.0858C84.9098 62.9997 85.4293 61.5255 85.4293 59.9896C85.4293 58.4537 84.91 56.9794 83.9859 55.8935C83.0618 54.8075 81.8075 54.197 80.5008 54.197ZM80.5008 61.9207C79.8363 61.9207 79.2371 61.45 78.9833 60.7285C78.7288 60.007 78.8689 59.1769 79.339 58.6243C79.8091 58.0718 80.5154 57.9071 81.1293 58.2063C81.7432 58.5045 82.1436 59.2088 82.1436 59.9898C82.1436 60.5018 81.9705 60.9931 81.6625 61.3552C81.3545 61.7172 80.9364 61.9207 80.5008 61.9207Z" fill="white"/>
<path d="M50.9285 31.0266C49.6216 31.0266 48.3673 31.6369 47.4434 32.7231C46.5194 33.8092 46 35.2833 46 36.8192C46 38.3551 46.5193 39.8295 47.4434 40.9154C48.3675 42.0014 49.6217 42.6119 50.9285 42.6119C52.2353 42.6119 53.4897 42.0016 54.4136 40.9154C55.3376 39.8293 55.857 38.3551 55.857 36.8192C55.857 35.2833 55.3378 33.809 54.4136 32.7231C53.4895 31.6371 52.2353 31.0266 50.9285 31.0266ZM50.9285 38.7503C50.264 38.7503 49.6648 38.2796 49.4111 37.5581C49.1566 36.8366 49.2967 36.0065 49.7668 35.4539C50.2369 34.9013 50.9432 34.7367 51.5571 35.0358C52.1709 35.3341 52.5714 36.0384 52.5714 36.8193C52.5714 37.3314 52.3983 37.8227 52.0903 38.1848C51.7822 38.5468 51.3642 38.7503 50.9285 38.7503Z" fill="white"/>
<path d="M65.7139 36.8192C65.7139 38.3553 66.2331 39.8295 67.1572 40.9154C68.0814 42.0014 69.3356 42.6119 70.6424 42.6119C71.9491 42.6119 73.2035 42.0016 74.1275 40.9154C75.0514 39.8293 75.5709 38.3551 75.5709 36.8192C75.5709 35.2833 75.0516 33.809 74.1275 32.7231C73.2034 31.6371 71.9491 31.0266 70.6424 31.0266C69.3356 31.0266 68.0812 31.6369 67.1572 32.7231C66.2333 33.8092 65.7139 35.2833 65.7139 36.8192ZM72.2853 36.8192C72.2853 37.6002 71.8849 38.3045 71.271 38.6027C70.6571 38.9019 69.9509 38.7372 69.4807 38.1847C69.0106 37.6321 68.8705 36.802 69.125 36.0805C69.3788 35.359 69.978 34.8883 70.6425 34.8883C71.0781 34.8883 71.4962 35.0918 71.8042 35.4538C72.1122 35.8158 72.2853 36.3072 72.2853 36.8192Z" fill="white"/>
<path d="M55.8574 13.6483C55.8574 15.1844 56.3767 16.6586 57.3008 17.7445C58.2249 18.8305 59.4791 19.441 60.7859 19.441C62.0927 19.441 63.3471 18.8307 64.2711 17.7445C65.195 16.6584 65.7144 15.1842 65.7144 13.6483C65.7144 12.1124 65.1952 10.6381 64.2711 9.55216C63.3469 8.46621 62.0927 7.85571 60.7859 7.85571C59.4791 7.85571 58.2247 8.46601 57.3008 9.55216C56.3768 10.6383 55.8574 12.1124 55.8574 13.6483ZM62.4289 13.6483C62.4289 14.4293 62.0284 15.1336 61.4146 15.4318C60.8007 15.731 60.0944 15.5663 59.6243 15.0138C59.1541 14.4612 59.0141 13.6311 59.2686 12.9096C59.5223 12.1881 60.1215 11.7174 60.786 11.7174C61.2217 11.7174 61.6397 11.9209 61.9478 12.2829C62.2558 12.645 62.4289 13.1363 62.4289 13.6483Z" fill="white"/>
<path d="M41.0711 11.7173H32.8567C31.9495 11.7173 31.2139 12.582 31.2139 13.6485C31.2139 14.715 31.9495 15.5797 32.8567 15.5797H41.0711C41.9783 15.5797 42.7139 14.715 42.7139 13.6485C42.7139 12.582 41.9783 11.7173 41.0711 11.7173Z" fill="white"/>
<path d="M31.2146 34.8879H23.0003C22.0931 34.8879 21.3574 35.7527 21.3574 36.8191C21.3574 37.8856 22.0931 38.7503 23.0003 38.7503H31.2146C32.1219 38.7503 32.8575 37.8856 32.8575 36.8191C32.8575 35.7527 32.1219 34.8879 31.2146 34.8879Z" fill="white"/>
<path d="M21.3572 58.0591H13.1429C12.2356 58.0591 11.5 58.9238 11.5 59.9903C11.5 61.0568 12.2356 61.9215 13.1429 61.9215H21.3572C22.2644 61.9215 23.0001 61.0568 23.0001 59.9903C23.0001 58.9238 22.2644 58.0591 21.3572 58.0591Z" fill="white"/>
</svg>
