<svg width="80" height="80" viewBox="0 0 80 80" fill="none" xmlns="http://www.w3.org/2000/svg">
<g clip-path="url(#clip0_1474_146)">
<path d="M45.4365 40.193L13.0832 72.5463C11.8291 73.8004 10.1283 74.5049 8.35484 74.5049C6.58137 74.5049 4.88054 73.8004 3.62651 72.5463C2.37248 71.2923 1.66797 69.5915 1.66797 67.818C1.66797 66.0445 2.37248 64.3437 3.62651 63.0897L35.9798 30.7363" stroke="white" stroke-width="4" stroke-linecap="round" stroke-linejoin="round"/>
<path d="M73.8071 28.3698C73.6523 28.214 73.4681 28.0905 73.2654 28.0062C73.0626 27.9218 72.8451 27.8784 72.6255 27.8784C72.4059 27.8784 72.1884 27.9218 71.9856 28.0062C71.7828 28.0905 71.5987 28.214 71.4438 28.3698C70.6347 29.1997 69.5623 29.7227 68.4102 29.8494C67.2581 29.976 66.0977 29.6985 65.1276 29.0642C64.1575 28.4299 63.4379 27.4783 63.0918 26.3721C62.7458 25.2659 62.7948 24.0738 63.2305 22.9998C63.4669 22.3939 63.5222 21.7323 63.3896 21.0956C63.2571 20.4588 62.9424 19.8743 62.4838 19.4131C59.7305 16.6531 54.9005 11.8264 54.8405 11.8864C50.6058 8.00828 45.1388 5.74834 39.4018 5.50445C33.6648 5.26056 28.0257 7.04835 23.4771 10.5531C23.1922 10.7662 22.9829 11.065 22.8799 11.4056C22.7769 11.7462 22.7857 12.1109 22.9049 12.4462C23.0241 12.7815 23.2475 13.0698 23.5424 13.269C23.8373 13.4682 24.1882 13.5677 24.5438 13.5531C27.089 13.4366 29.6304 13.8532 32.0051 14.7762C34.3798 15.6992 36.5355 17.1083 38.3338 18.9131C40.6305 21.2131 42.7338 23.9764 40.4371 26.2731L35.9705 30.7364L45.4271 40.1931L50.1571 35.4631C51.0978 34.5229 52.3734 33.9949 53.7033 33.9952C55.0333 33.9955 56.3086 34.5241 57.2488 35.4648C58.189 36.4054 58.717 37.681 58.7167 39.0109C58.7164 40.3409 58.1878 41.6162 57.2471 42.5564C57.0914 42.7113 56.9679 42.8954 56.8836 43.0982C56.7992 43.301 56.7558 43.5185 56.7558 43.7381C56.7558 43.9577 56.7992 44.1752 56.8836 44.378C56.9679 44.5808 57.0914 44.7649 57.2471 44.9198L60.7938 48.4664C61.1036 48.7784 61.4721 49.0259 61.878 49.1948C62.2839 49.3638 62.7192 49.4507 63.1588 49.4507C63.5985 49.4507 64.0338 49.3638 64.4396 49.1948C64.8455 49.0259 65.214 48.7784 65.5238 48.4664L77.3438 36.6464C77.6557 36.3366 77.9033 35.9681 78.0722 35.5623C78.2412 35.1564 78.3281 34.7211 78.3281 34.2814C78.3281 33.8418 78.2412 33.4065 78.0722 33.0006C77.9033 32.5947 77.6557 32.2262 77.3438 31.9164L73.8071 28.3698Z" stroke="#42B9DE" stroke-width="4" stroke-linecap="round" stroke-linejoin="round"/>
<path d="M71.4435 28.3733L57.2568 42.5566" stroke="#42B9DE" stroke-width="3" stroke-linecap="round" stroke-linejoin="round"/>
</g>
<defs>
<clipPath id="clip0_1474_146">
<rect width="80" height="80" rx="10" fill="white"/>
</clipPath>
</defs>
</svg>
