<svg width="92" height="74" viewBox="0 0 92 74" fill="none" xmlns="http://www.w3.org/2000/svg">
<path d="M41.0711 54.1971C39.7641 54.1971 38.5099 54.8074 37.586 55.8936C36.662 56.9797 36.1426 58.4539 36.1426 59.9898C36.1426 61.5257 36.6618 63 37.586 64.0859C38.5101 65.1719 39.7643 65.7824 41.0711 65.7824C42.3779 65.7824 43.6323 65.1721 44.5562 64.0859C45.4802 62.9998 45.9996 61.5257 45.9996 59.9898C45.9996 58.4539 45.4803 56.9795 44.5562 55.8936C43.6321 54.8076 42.3779 54.1971 41.0711 54.1971ZM41.0711 61.9208C40.4066 61.9208 39.8074 61.4501 39.5536 60.7286C39.2991 60.0071 39.4392 59.177 39.9093 58.6244C40.3795 58.0719 41.0857 57.9073 41.6996 58.2064C42.3135 58.5046 42.7139 59.2089 42.7139 59.9899C42.7139 60.5019 42.5409 60.9933 42.2328 61.3553C41.9248 61.7173 41.5067 61.9208 41.0711 61.9208Z" fill="#C7C01D"/>
<path d="M60.7859 54.1971C59.479 54.1971 58.2247 54.8074 57.3008 55.8936C56.3768 56.9797 55.8574 58.4539 55.8574 59.9898C55.8574 61.5257 56.3767 63 57.3008 64.0859C58.2249 65.1719 59.4791 65.7824 60.7859 65.7824C62.0927 65.7824 63.3471 65.1721 64.2711 64.0859C65.195 62.9998 65.7144 61.5257 65.7144 59.9898C65.7144 58.4539 65.1952 56.9795 64.2711 55.8936C63.3469 54.8076 62.0927 54.1971 60.7859 54.1971ZM60.7859 61.9208C60.1214 61.9208 59.5222 61.4501 59.2685 60.7286C59.014 60.0071 59.1541 59.177 59.6242 58.6244C60.0943 58.0719 60.8006 57.9073 61.4145 58.2064C62.0283 58.5046 62.4288 59.2089 62.4288 59.9899C62.4288 60.5019 62.2557 60.9933 61.9477 61.3553C61.6396 61.7173 61.2216 61.9208 60.7859 61.9208Z" fill="white"/>
<path d="M80.5001 46.4734H78.6768C80.8638 43.9547 82.1056 40.5152 82.1276 36.9162C82.1503 33.3181 80.9505 29.8572 78.7942 27.3023C76.6387 24.7464 73.705 23.3069 70.6429 23.3025H68.8196C71.0066 20.7837 72.2485 17.3443 72.2704 13.7453C72.2932 10.1472 71.0933 6.68632 68.937 4.13134C66.7816 1.57547 63.8479 0.136005 60.7858 0.131592H31.2142C28.1521 0.135902 25.2184 1.57547 23.0629 4.13134C20.9067 6.68632 19.7068 10.1474 19.7295 13.7453C19.7515 17.3443 20.9932 20.7837 23.1803 23.3025H21.357C18.2949 23.3068 15.3612 24.7464 13.2058 27.3023C11.0496 29.8572 9.84962 33.3183 9.87234 36.9162C9.89434 40.5152 11.136 43.9547 13.3231 46.4734H11.4998C7.39116 46.4734 3.59492 49.0501 1.54068 53.2316C-0.51356 57.4132 -0.51356 62.5664 1.54068 66.748C3.59492 70.9296 7.39116 73.5062 11.4998 73.5062H80.5002C84.6088 73.5062 88.4051 70.9296 90.4593 66.748C92.5136 62.5664 92.5136 57.4132 90.4593 53.2316C88.4051 49.0501 84.6088 46.4734 80.5001 46.4734ZM60.7857 69.6444C58.6074 69.6444 56.518 68.6272 54.9769 66.8171C53.4367 65.006 52.5714 62.5501 52.5714 59.9898C52.5714 57.4295 53.4368 54.9739 54.9769 53.1626C56.5178 51.3523 58.6074 50.3353 60.7857 50.3353C62.9641 50.3353 65.0534 51.3525 66.5945 53.1626C68.1347 54.9736 69 57.4295 69 59.9898C69 62.5501 68.1346 65.0058 66.5945 66.8171C65.0536 68.6273 62.9641 69.6444 60.7857 69.6444ZM41.0713 69.6444C38.893 69.6444 36.8036 68.6272 35.2625 66.8171C33.7224 65.006 32.857 62.5501 32.857 59.9898C32.857 57.4295 33.7224 54.9739 35.2625 53.1626C36.8034 51.3523 38.893 50.3353 41.0713 50.3353C43.2497 50.3353 45.339 51.3525 46.8801 53.1626C48.4203 54.9736 49.2857 57.4295 49.2857 59.9898C49.2857 62.5501 48.4202 65.0058 46.8801 66.8171C45.3392 68.6273 43.2497 69.6444 41.0713 69.6444ZM49.1052 50.3353H52.7526C52.0507 51.1499 51.4375 52.0645 50.9286 53.0575C50.4196 52.0645 49.8071 51.1499 49.1052 50.3353ZM42.7142 36.8189C42.7142 34.2586 43.5796 31.8029 45.1197 29.9916C46.6606 28.1814 48.7502 27.1643 50.9285 27.1643C53.1069 27.1643 55.1962 28.1815 56.7373 29.9916C58.2775 31.8027 59.1428 34.2586 59.1428 36.8189C59.1428 39.3792 58.2774 41.8348 56.7373 43.6461C55.1964 45.4564 53.1069 46.4734 50.9285 46.4734C48.7502 46.4734 46.6608 45.4563 45.1197 43.6461C43.5795 41.8351 42.7142 39.3792 42.7142 36.8189ZM62.6088 27.1643C61.9069 27.9789 61.2945 28.8935 60.7855 29.8866C60.2766 28.8936 59.6641 27.979 58.9623 27.1643H62.6088ZM58.9622 46.4734C59.6641 45.6588 60.2765 44.7443 60.7855 43.7512C61.2945 44.7442 61.9069 45.6588 62.6088 46.4734H58.9622ZM68.8194 50.3353H72.4668H72.466C71.7641 51.1499 71.1517 52.0645 70.6428 53.0575C70.1338 52.0645 69.5213 51.1499 68.8194 50.3353ZM78.857 36.8189C78.857 39.3792 77.9916 41.8348 76.4515 43.6461C74.9106 45.4564 72.8211 46.4734 70.6427 46.4734C68.4644 46.4734 66.375 45.4563 64.8339 43.6461C63.2937 41.8351 62.4284 39.3792 62.4284 36.8189C62.4284 34.2586 63.2938 31.8029 64.8339 29.9916C66.3748 28.1814 68.4644 27.1643 70.6427 27.1643C72.8211 27.1643 74.9104 28.1815 76.4515 29.9916C77.9917 31.8027 78.857 34.2586 78.857 36.8189ZM68.9998 13.648C68.9998 16.2082 68.1344 18.6639 66.5943 20.4752C65.0534 22.2854 62.9639 23.3025 60.7855 23.3025C58.6072 23.3025 56.5178 22.2853 54.9767 20.4752C53.4365 18.6641 52.5712 16.2082 52.5712 13.648C52.5712 11.0877 53.4366 8.63201 54.9767 6.82071C56.5176 5.01048 58.6072 3.99341 60.7855 3.99341C62.9639 3.99341 65.0532 5.01059 66.5943 6.82071C68.1345 8.63179 68.9998 11.0877 68.9998 13.648ZM24.6425 19.4407H26.2854C27.1926 19.4407 27.9282 18.5761 27.9282 17.5098C27.9282 16.4435 27.1926 15.5789 26.2854 15.5789H23.1639C23.059 14.9427 23.004 14.2962 22.9996 13.648C22.9996 11.0877 23.8651 8.63201 25.4052 6.82071C26.9461 5.01048 29.0356 3.99341 31.2139 3.99341H52.7514C51.7797 5.10195 50.989 6.41135 50.4191 7.85523H47.6424C46.7352 7.85523 45.9995 8.71984 45.9995 9.78615C45.9995 10.8524 46.7352 11.7171 47.6424 11.7171H49.4166C49.3315 12.3558 49.2875 13.0015 49.2853 13.648C49.2889 17.2832 50.5387 20.763 52.7514 23.3025H31.2139C28.6285 23.3025 26.1937 21.8716 24.6425 19.4407ZM14.7853 42.6116H16.4282C17.889 42.3845 18.071 41.9301 18.071 40.6807C18.071 39.4313 17.3354 38.7498 16.4282 38.7498H13.3067C13.2018 38.1136 13.1468 37.4671 13.1424 36.8189C13.1424 34.2586 14.0079 31.8029 15.548 29.9916C17.0889 28.1814 19.1784 27.1643 21.3568 27.1643H42.8943C41.9225 28.2729 41.1318 29.5823 40.5619 31.0262H37.7852C36.878 31.0262 36.1424 31.8908 36.1424 32.9571C36.1424 34.0234 36.878 34.888 37.7852 34.888H39.5594C39.4743 35.5267 39.4303 36.1724 39.4281 36.8189C39.4318 40.4541 40.6815 43.9339 42.8942 46.4734H21.3568C18.7713 46.4734 16.3365 45.0425 14.7853 42.6116ZM11.4996 69.6444C8.91416 69.6444 6.47934 68.2134 4.9281 65.7826H6.57096C7.4782 65.7826 8.21383 64.9179 8.21383 63.8516C8.21383 62.7853 7.4782 61.9207 6.57096 61.9207H3.44952C3.34464 61.2846 3.28963 60.6381 3.28523 59.9898C3.28523 57.4295 4.15068 54.9739 5.69077 53.1626C7.23168 51.3523 9.32121 50.3353 11.4996 50.3353H33.0371C32.0653 51.4438 31.2746 52.7532 30.7048 54.1971H27.928C27.0208 54.1971 26.2852 55.0617 26.2852 56.128C26.2852 57.1943 27.0208 58.0589 27.928 58.0589H29.7022C29.6171 58.6977 29.5731 59.3433 29.5709 59.9898C29.5746 63.625 30.8243 67.1048 33.0371 69.6444H11.4996ZM49.1052 69.6444C49.8071 68.8298 50.4195 67.9152 50.9285 66.9221C51.4375 67.9152 52.0499 68.8298 52.7518 69.6444H49.1052ZM68.8196 69.6444C69.5215 68.8298 70.1339 67.9152 70.6429 66.9221C71.1519 67.9152 71.7643 68.8298 72.4662 69.6444H68.8196ZM80.5001 69.6444C78.3217 69.6444 76.2324 68.6272 74.6913 66.8171C73.1511 65.006 72.2858 62.5501 72.2858 59.9898C72.2858 57.4295 73.1512 54.9739 74.6913 53.1626C76.2322 51.3523 78.3217 50.3353 80.5001 50.3353C82.6784 50.3353 84.7678 51.3525 86.3089 53.1626C87.8491 54.9736 88.7144 57.4295 88.7144 59.9898C88.7144 62.5501 87.849 65.0058 86.3089 66.8171C84.768 68.6273 82.6784 69.6444 80.5001 69.6444Z" fill="white"/>
<path d="M80.5008 54.1971C79.1938 54.1971 77.9396 54.8074 77.0156 55.8936C76.0917 56.9797 75.5723 58.4539 75.5723 59.9898C75.5723 61.5257 76.0915 63 77.0156 64.0859C77.9398 65.1719 79.194 65.7824 80.5008 65.7824C81.8075 65.7824 83.0619 65.1721 83.9859 64.0859C84.9098 62.9998 85.4293 61.5257 85.4293 59.9898C85.4293 58.4539 84.91 56.9795 83.9859 55.8936C83.0618 54.8076 81.8075 54.1971 80.5008 54.1971ZM80.5008 61.9208C79.8363 61.9208 79.2371 61.4501 78.9833 60.7286C78.7288 60.0071 78.8689 59.177 79.339 58.6244C79.8091 58.0719 80.5154 57.9073 81.1293 58.2064C81.7432 58.5046 82.1436 59.2089 82.1436 59.9899C82.1436 60.5019 81.9705 60.9933 81.6625 61.3553C81.3545 61.7173 80.9364 61.9208 80.5008 61.9208Z" fill="white"/>
<path d="M50.9285 31.0265C49.6216 31.0265 48.3673 31.6368 47.4434 32.7229C46.5194 33.8091 46 35.2832 46 36.8191C46 38.355 46.5193 39.8294 47.4434 40.9153C48.3675 42.0012 49.6217 42.6117 50.9285 42.6117C52.2353 42.6117 53.4897 42.0014 54.4136 40.9153C55.3376 39.8292 55.857 38.355 55.857 36.8191C55.857 35.2832 55.3378 33.8089 54.4136 32.7229C53.4895 31.637 52.2353 31.0265 50.9285 31.0265ZM50.9285 38.7501C50.264 38.7501 49.6648 38.2795 49.4111 37.558C49.1566 36.8365 49.2967 36.0064 49.7668 35.4538C50.2369 34.9012 50.9432 34.7366 51.5571 35.0357C52.1709 35.334 52.5714 36.0383 52.5714 36.8192C52.5714 37.3313 52.3983 37.8226 52.0903 38.1847C51.7822 38.5467 51.3642 38.7501 50.9285 38.7501Z" fill="white"/>
<path d="M65.7139 36.8191C65.7139 38.3552 66.2331 39.8294 67.1572 40.9153C68.0814 42.0012 69.3356 42.6117 70.6424 42.6117C71.9491 42.6117 73.2035 42.0014 74.1275 40.9153C75.0514 39.8292 75.5709 38.355 75.5709 36.8191C75.5709 35.2832 75.0516 33.8089 74.1275 32.7229C73.2034 31.637 71.9491 31.0265 70.6424 31.0265C69.3356 31.0265 68.0812 31.6368 67.1572 32.7229C66.2333 33.8091 65.7139 35.2832 65.7139 36.8191ZM72.2853 36.8191C72.2853 37.6001 71.8849 38.3044 71.271 38.6026C70.6571 38.9017 69.9509 38.7371 69.4807 38.1845C69.0106 37.632 68.8705 36.8019 69.125 36.0804C69.3788 35.3589 69.978 34.8882 70.6425 34.8882C71.0781 34.8882 71.4962 35.0916 71.8042 35.4537C72.1122 35.8157 72.2853 36.3071 72.2853 36.8191Z" fill="white"/>
<path d="M55.8574 13.6482C55.8574 15.1843 56.3767 16.6584 57.3008 17.7444C58.2249 18.8303 59.4791 19.4408 60.7859 19.4408C62.0927 19.4408 63.3471 18.8305 64.2711 17.7444C65.195 16.6582 65.7144 15.1841 65.7144 13.6482C65.7144 12.1123 65.1952 10.638 64.2711 9.55203C63.3469 8.46609 62.0927 7.85559 60.7859 7.85559C59.4791 7.85559 58.2247 8.46589 57.3008 9.55203C56.3768 10.6382 55.8574 12.1123 55.8574 13.6482ZM62.4289 13.6482C62.4289 14.4292 62.0284 15.1335 61.4146 15.4317C60.8007 15.7308 60.0944 15.5662 59.6243 15.0136C59.1541 14.4611 59.0141 13.631 59.2686 12.9095C59.5223 12.188 60.1215 11.7173 60.786 11.7173C61.2217 11.7173 61.6397 11.9207 61.9478 12.2828C62.2558 12.6448 62.4289 13.1362 62.4289 13.6482Z" fill="white"/>
<path d="M41.0711 11.7173H32.8567C31.9495 11.7173 31.2139 12.582 31.2139 13.6485C31.2139 14.715 31.9495 15.5797 32.8567 15.5797H41.0711C41.9783 15.5797 42.7139 14.715 42.7139 13.6485C42.7139 12.582 41.9783 11.7173 41.0711 11.7173Z" fill="white"/>
<path d="M31.2146 34.8878H23.0003C22.0931 34.8878 21.3574 35.7526 21.3574 36.819C21.3574 37.8855 22.0931 38.7502 23.0003 38.7502H31.2146C32.1219 38.7502 32.8575 37.8855 32.8575 36.819C32.8575 35.7526 32.1219 34.8878 31.2146 34.8878Z" fill="white"/>
<path d="M21.3572 58.0592H13.1429C12.2356 58.0592 11.5 58.9239 11.5 59.9904C11.5 61.0569 12.2356 61.9216 13.1429 61.9216H21.3572C22.2644 61.9216 23.0001 61.0569 23.0001 59.9904C23.0001 58.9239 22.2644 58.0592 21.3572 58.0592Z" fill="white"/>
</svg>
