<svg width="52" height="52" viewBox="0 0 52 52" fill="none" xmlns="http://www.w3.org/2000/svg">
<path d="M20.2773 37.2705L39.0535 14.3894C40.0092 16.327 40.5604 18.4974 40.5604 20.8C40.5604 25.662 38.5543 28.3597 36.7842 30.7393C36.1529 31.5889 35.4925 32.3991 34.7947 33.2561C32.4328 36.1566 29.7548 39.4451 27.5927 45.2285C27.3056 45.9981 26.7399 46.4225 26.0015 46.4225C25.2631 46.4225 24.6973 45.9981 24.4103 45.2285C23.1519 41.8652 21.7198 39.3598 20.2773 37.2705ZM27.5386 26.7821L19.6554 36.3896C18.8255 35.2529 17.9987 34.2274 17.2072 33.2561C16.5094 32.3991 15.849 31.5889 15.2177 30.7393C14.8683 30.2692 14.5116 29.7793 14.1611 29.2708L20.8753 21.0964C20.84 21.3418 20.8004 21.5852 20.8004 21.84C20.8004 24.7114 23.129 27.04 26.0004 27.04C26.5392 27.04 27.0488 26.935 27.5386 26.7821ZM24.2782 16.9551L32.0033 7.55039C34.7281 8.79007 37.0005 10.843 38.5179 13.4014L31.1453 22.386C31.1651 22.204 31.2004 22.0272 31.2004 21.84C31.2004 18.9685 28.8719 16.64 26.0004 16.64C25.3931 16.64 24.819 16.7637 24.2782 16.9551ZM21.9299 18.175L13.5672 28.3556C12.3962 26.4576 11.4404 24.1467 11.4404 20.8C11.4404 17.4959 12.5595 14.456 14.42 12.0099L21.9299 18.175ZM22.5892 17.3722L15.0773 11.205C17.748 8.16815 21.6491 6.23999 26.0004 6.23999C27.757 6.23999 29.4335 6.56863 30.9945 7.14063L22.5892 17.3722Z" fill="white"/>
</svg>
