<svg width="237" height="91" viewBox="0 0 237 91" fill="none" xmlns="http://www.w3.org/2000/svg">
<path d="M70.15 62V27H87.25C91.65 27 94.95 27.8333 97.15 29.5C99.3833 31.1667 100.5 33.3667 100.5 36.1C100.5 37.9333 100.05 39.5333 99.15 40.9C98.25 42.2333 97.0167 43.2667 95.45 44C93.8833 44.7333 92.0833 45.1 90.05 45.1L91 43.05C93.2 43.05 95.15 43.4167 96.85 44.15C98.55 44.85 99.8667 45.9 100.8 47.3C101.767 48.7 102.25 50.4167 102.25 52.45C102.25 55.45 101.067 57.8 98.7 59.5C96.3333 61.1667 92.85 62 88.25 62H70.15ZM78.2 55.9H87.65C89.75 55.9 91.3333 55.5667 92.4 54.9C93.5 54.2 94.05 53.1 94.05 51.6C94.05 50.1333 93.5 49.05 92.4 48.35C91.3333 47.6167 89.75 47.25 87.65 47.25H77.6V41.35H86.25C88.2167 41.35 89.7167 41.0167 90.75 40.35C91.8167 39.65 92.35 38.6 92.35 37.2C92.35 35.8333 91.8167 34.8167 90.75 34.15C89.7167 33.45 88.2167 33.1 86.25 33.1H78.2V55.9ZM108.382 62V27H123.532C126.666 27 129.366 27.5167 131.632 28.55C133.899 29.55 135.649 31 136.882 32.9C138.116 34.8 138.732 37.0667 138.732 39.7C138.732 42.3 138.116 44.55 136.882 46.45C135.649 48.3167 133.899 49.75 131.632 50.75C129.366 51.75 126.666 52.25 123.532 52.25H112.882L116.482 48.7V62H108.382ZM130.632 62L121.882 49.3H130.532L139.382 62H130.632ZM116.482 49.6L112.882 45.8H123.082C125.582 45.8 127.449 45.2667 128.682 44.2C129.916 43.1 130.532 41.6 130.532 39.7C130.532 37.7667 129.916 36.2667 128.682 35.2C127.449 34.1333 125.582 33.6 123.082 33.6H112.882L116.482 29.75V49.6ZM140.55 62L156.15 27H164.15L179.8 62H171.3L158.5 31.1H161.7L148.85 62H140.55ZM148.35 54.5L150.5 48.35H168.5L170.7 54.5H148.35ZM181.181 62V56.75L202.831 30.65L203.831 33.6H181.581V27H211.031V32.25L189.431 58.35L188.431 55.4H211.781V62H181.181Z" fill="white"/>
<path d="M72.16 77.668H76.6V78.436H72.16V77.668ZM72.256 82H71.368V73.6H77.128V74.368H72.256V82ZM82.5283 82.072C81.8963 82.072 81.3083 81.968 80.7643 81.76C80.2283 81.544 79.7603 81.244 79.3603 80.86C78.9683 80.468 78.6603 80.016 78.4363 79.504C78.2203 78.984 78.1123 78.416 78.1123 77.8C78.1123 77.184 78.2203 76.62 78.4363 76.108C78.6603 75.588 78.9683 75.136 79.3603 74.752C79.7603 74.36 80.2283 74.06 80.7643 73.852C81.3003 73.636 81.8883 73.528 82.5283 73.528C83.1603 73.528 83.7443 73.636 84.2803 73.852C84.8163 74.06 85.2803 74.356 85.6723 74.74C86.0723 75.124 86.3803 75.576 86.5963 76.096C86.8203 76.616 86.9323 77.184 86.9323 77.8C86.9323 78.416 86.8203 78.984 86.5963 79.504C86.3803 80.024 86.0723 80.476 85.6723 80.86C85.2803 81.244 84.8163 81.544 84.2803 81.76C83.7443 81.968 83.1603 82.072 82.5283 82.072ZM82.5283 81.28C83.0323 81.28 83.4963 81.196 83.9203 81.028C84.3523 80.852 84.7243 80.608 85.0363 80.296C85.3563 79.976 85.6043 79.608 85.7803 79.192C85.9563 78.768 86.0443 78.304 86.0443 77.8C86.0443 77.296 85.9563 76.836 85.7803 76.42C85.6043 75.996 85.3563 75.628 85.0363 75.316C84.7243 74.996 84.3523 74.752 83.9203 74.584C83.4963 74.408 83.0323 74.32 82.5283 74.32C82.0243 74.32 81.5563 74.408 81.1243 74.584C80.6923 74.752 80.3163 74.996 79.9963 75.316C79.6843 75.628 79.4363 75.996 79.2523 76.42C79.0763 76.836 78.9883 77.296 78.9883 77.8C78.9883 78.296 79.0763 78.756 79.2523 79.18C79.4363 79.604 79.6843 79.976 79.9963 80.296C80.3163 80.608 80.6923 80.852 81.1243 81.028C81.5563 81.196 82.0243 81.28 82.5283 81.28ZM88.9227 82V73.6H92.0667C92.7787 73.6 93.3907 73.716 93.9027 73.948C94.4147 74.172 94.8067 74.5 95.0787 74.932C95.3587 75.356 95.4987 75.872 95.4987 76.48C95.4987 77.072 95.3587 77.584 95.0787 78.016C94.8067 78.44 94.4147 78.768 93.9027 79C93.3907 79.224 92.7787 79.336 92.0667 79.336H89.4147L89.8107 78.928V82H88.9227ZM94.6587 82L92.4987 78.952H93.4587L95.6307 82H94.6587ZM89.8107 79L89.4147 78.58H92.0427C92.8827 78.58 93.5187 78.396 93.9507 78.028C94.3907 77.66 94.6107 77.144 94.6107 76.48C94.6107 75.808 94.3907 75.288 93.9507 74.92C93.5187 74.552 92.8827 74.368 92.0427 74.368H89.4147L89.8107 73.948V79ZM97.5946 82V73.6H98.3266L104.123 80.896H103.739V73.6H104.615V82H103.883L98.0986 74.704H98.4826V82H97.5946ZM111.028 82.072C110.396 82.072 109.808 81.968 109.264 81.76C108.728 81.544 108.26 81.244 107.86 80.86C107.468 80.468 107.16 80.016 106.936 79.504C106.72 78.984 106.612 78.416 106.612 77.8C106.612 77.184 106.72 76.62 106.936 76.108C107.16 75.588 107.468 75.136 107.86 74.752C108.26 74.36 108.728 74.06 109.264 73.852C109.8 73.636 110.388 73.528 111.028 73.528C111.66 73.528 112.244 73.636 112.78 73.852C113.316 74.06 113.78 74.356 114.172 74.74C114.572 75.124 114.88 75.576 115.096 76.096C115.32 76.616 115.432 77.184 115.432 77.8C115.432 78.416 115.32 78.984 115.096 79.504C114.88 80.024 114.572 80.476 114.172 80.86C113.78 81.244 113.316 81.544 112.78 81.76C112.244 81.968 111.66 82.072 111.028 82.072ZM111.028 81.28C111.532 81.28 111.996 81.196 112.42 81.028C112.852 80.852 113.224 80.608 113.536 80.296C113.856 79.976 114.104 79.608 114.28 79.192C114.456 78.768 114.544 78.304 114.544 77.8C114.544 77.296 114.456 76.836 114.28 76.42C114.104 75.996 113.856 75.628 113.536 75.316C113.224 74.996 112.852 74.752 112.42 74.584C111.996 74.408 111.532 74.32 111.028 74.32C110.524 74.32 110.056 74.408 109.624 74.584C109.192 74.752 108.816 74.996 108.496 75.316C108.184 75.628 107.936 75.996 107.752 76.42C107.576 76.836 107.488 77.296 107.488 77.8C107.488 78.296 107.576 78.756 107.752 79.18C107.936 79.604 108.184 79.976 108.496 80.296C108.816 80.608 109.192 80.852 109.624 81.028C110.056 81.196 110.524 81.28 111.028 81.28ZM119.739 82.072C119.115 82.072 118.515 81.972 117.939 81.772C117.371 81.564 116.931 81.3 116.619 80.98L116.967 80.296C117.263 80.584 117.659 80.828 118.155 81.028C118.659 81.22 119.187 81.316 119.739 81.316C120.267 81.316 120.695 81.252 121.023 81.124C121.359 80.988 121.603 80.808 121.755 80.584C121.915 80.36 121.995 80.112 121.995 79.84C121.995 79.512 121.899 79.248 121.707 79.048C121.523 78.848 121.279 78.692 120.975 78.58C120.671 78.46 120.335 78.356 119.967 78.268C119.599 78.18 119.231 78.088 118.863 77.992C118.495 77.888 118.155 77.752 117.843 77.584C117.539 77.416 117.291 77.196 117.099 76.924C116.915 76.644 116.823 76.28 116.823 75.832C116.823 75.416 116.931 75.036 117.147 74.692C117.371 74.34 117.711 74.06 118.167 73.852C118.623 73.636 119.207 73.528 119.919 73.528C120.391 73.528 120.859 73.596 121.323 73.732C121.787 73.86 122.187 74.04 122.523 74.272L122.223 74.98C121.863 74.74 121.479 74.564 121.071 74.452C120.671 74.34 120.283 74.284 119.907 74.284C119.403 74.284 118.987 74.352 118.659 74.488C118.331 74.624 118.087 74.808 117.927 75.04C117.775 75.264 117.699 75.52 117.699 75.808C117.699 76.136 117.791 76.4 117.975 76.6C118.167 76.8 118.415 76.956 118.719 77.068C119.031 77.18 119.371 77.28 119.739 77.368C120.107 77.456 120.471 77.552 120.831 77.656C121.199 77.76 121.535 77.896 121.839 78.064C122.151 78.224 122.399 78.44 122.583 78.712C122.775 78.984 122.871 79.34 122.871 79.78C122.871 80.188 122.759 80.568 122.535 80.92C122.311 81.264 121.967 81.544 121.503 81.76C121.047 81.968 120.459 82.072 119.739 82.072ZM126.602 82L130.442 73.6H131.318L135.158 82H134.222L130.694 74.116H131.054L127.526 82H126.602ZM128.114 79.756L128.378 79.036H133.262L133.526 79.756H128.114ZM139.756 82.072C138.684 82.072 137.84 81.764 137.224 81.148C136.608 80.532 136.3 79.62 136.3 78.412V73.6H137.188V78.376C137.188 79.368 137.412 80.1 137.86 80.572C138.308 81.044 138.94 81.28 139.756 81.28C140.58 81.28 141.216 81.044 141.664 80.572C142.112 80.1 142.336 79.368 142.336 78.376V73.6H143.2V78.412C143.2 79.62 142.892 80.532 142.276 81.148C141.668 81.764 140.828 82.072 139.756 82.072ZM147.344 82V74.368H144.392V73.6H151.184V74.368H148.232V82H147.344ZM156.157 82.072C155.525 82.072 154.937 81.968 154.393 81.76C153.857 81.544 153.389 81.244 152.989 80.86C152.597 80.468 152.289 80.016 152.065 79.504C151.849 78.984 151.741 78.416 151.741 77.8C151.741 77.184 151.849 76.62 152.065 76.108C152.289 75.588 152.597 75.136 152.989 74.752C153.389 74.36 153.857 74.06 154.393 73.852C154.929 73.636 155.517 73.528 156.157 73.528C156.789 73.528 157.373 73.636 157.909 73.852C158.445 74.06 158.909 74.356 159.301 74.74C159.701 75.124 160.009 75.576 160.225 76.096C160.449 76.616 160.561 77.184 160.561 77.8C160.561 78.416 160.449 78.984 160.225 79.504C160.009 80.024 159.701 80.476 159.301 80.86C158.909 81.244 158.445 81.544 157.909 81.76C157.373 81.968 156.789 82.072 156.157 82.072ZM156.157 81.28C156.661 81.28 157.125 81.196 157.549 81.028C157.981 80.852 158.353 80.608 158.665 80.296C158.985 79.976 159.233 79.608 159.409 79.192C159.585 78.768 159.673 78.304 159.673 77.8C159.673 77.296 159.585 76.836 159.409 76.42C159.233 75.996 158.985 75.628 158.665 75.316C158.353 74.996 157.981 74.752 157.549 74.584C157.125 74.408 156.661 74.32 156.157 74.32C155.653 74.32 155.185 74.408 154.753 74.584C154.321 74.752 153.945 74.996 153.625 75.316C153.313 75.628 153.065 75.996 152.881 76.42C152.705 76.836 152.617 77.296 152.617 77.8C152.617 78.296 152.705 78.756 152.881 79.18C153.065 79.604 153.313 79.976 153.625 80.296C153.945 80.608 154.321 80.852 154.753 81.028C155.185 81.196 155.653 81.28 156.157 81.28ZM162.552 82V73.6H163.284L167.124 80.152H166.74L170.544 73.6H171.276V82H170.424V74.932H170.628L167.124 80.932H166.704L163.176 74.932H163.404V82H162.552ZM172.669 82L176.509 73.6H177.385L181.225 82H180.289L176.761 74.116H177.121L173.593 82H172.669ZM174.181 79.756L174.445 79.036H179.329L179.593 79.756H174.181ZM183.824 82V74.368H180.872V73.6H187.664V74.368H184.712V82H183.824ZM189.083 82V73.6H189.971V82H189.083ZM191.876 82V81.388L197.708 74.032L197.804 74.368H191.96V73.6H198.62V74.212L192.8 81.568L192.692 81.232H198.764V82H191.876ZM199.176 82L203.016 73.6H203.892L207.732 82H206.796L203.268 74.116H203.628L200.1 82H199.176ZM200.688 79.756L200.952 79.036H205.836L206.1 79.756H200.688ZM209.122 82V73.6H212.542C213.438 73.6 214.222 73.78 214.894 74.14C215.574 74.492 216.102 74.984 216.478 75.616C216.854 76.248 217.042 76.976 217.042 77.8C217.042 78.624 216.854 79.352 216.478 79.984C216.102 80.616 215.574 81.112 214.894 81.472C214.222 81.824 213.438 82 212.542 82H209.122ZM210.01 81.232H212.494C213.238 81.232 213.882 81.088 214.426 80.8C214.978 80.504 215.406 80.1 215.71 79.588C216.014 79.068 216.166 78.472 216.166 77.8C216.166 77.12 216.014 76.524 215.71 76.012C215.406 75.5 214.978 75.1 214.426 74.812C213.882 74.516 213.238 74.368 212.494 74.368H210.01V81.232ZM222.708 82.072C222.076 82.072 221.488 81.968 220.944 81.76C220.408 81.544 219.94 81.244 219.54 80.86C219.148 80.468 218.84 80.016 218.616 79.504C218.4 78.984 218.292 78.416 218.292 77.8C218.292 77.184 218.4 76.62 218.616 76.108C218.84 75.588 219.148 75.136 219.54 74.752C219.94 74.36 220.408 74.06 220.944 73.852C221.48 73.636 222.068 73.528 222.708 73.528C223.34 73.528 223.924 73.636 224.46 73.852C224.996 74.06 225.46 74.356 225.852 74.74C226.252 75.124 226.56 75.576 226.776 76.096C227 76.616 227.112 77.184 227.112 77.8C227.112 78.416 227 78.984 226.776 79.504C226.56 80.024 226.252 80.476 225.852 80.86C225.46 81.244 224.996 81.544 224.46 81.76C223.924 81.968 223.34 82.072 222.708 82.072ZM222.708 81.28C223.212 81.28 223.676 81.196 224.1 81.028C224.532 80.852 224.904 80.608 225.216 80.296C225.536 79.976 225.784 79.608 225.96 79.192C226.136 78.768 226.224 78.304 226.224 77.8C226.224 77.296 226.136 76.836 225.96 76.42C225.784 75.996 225.536 75.628 225.216 75.316C224.904 74.996 224.532 74.752 224.1 74.584C223.676 74.408 223.212 74.32 222.708 74.32C222.204 74.32 221.736 74.408 221.304 74.584C220.872 74.752 220.496 74.996 220.176 75.316C219.864 75.628 219.616 75.996 219.432 76.42C219.256 76.836 219.168 77.296 219.168 77.8C219.168 78.296 219.256 78.756 219.432 79.18C219.616 79.604 219.864 79.976 220.176 80.296C220.496 80.608 220.872 80.852 221.304 81.028C221.736 81.196 222.204 81.28 222.708 81.28ZM231.418 82.072C230.794 82.072 230.194 81.972 229.618 81.772C229.05 81.564 228.61 81.3 228.298 80.98L228.646 80.296C228.942 80.584 229.338 80.828 229.834 81.028C230.338 81.22 230.866 81.316 231.418 81.316C231.946 81.316 232.374 81.252 232.702 81.124C233.038 80.988 233.282 80.808 233.434 80.584C233.594 80.36 233.674 80.112 233.674 79.84C233.674 79.512 233.578 79.248 233.386 79.048C233.202 78.848 232.958 78.692 232.654 78.58C232.35 78.46 232.014 78.356 231.646 78.268C231.278 78.18 230.91 78.088 230.542 77.992C230.174 77.888 229.834 77.752 229.522 77.584C229.218 77.416 228.97 77.196 228.778 76.924C228.594 76.644 228.502 76.28 228.502 75.832C228.502 75.416 228.61 75.036 228.826 74.692C229.05 74.34 229.39 74.06 229.846 73.852C230.302 73.636 230.886 73.528 231.598 73.528C232.07 73.528 232.538 73.596 233.002 73.732C233.466 73.86 233.866 74.04 234.202 74.272L233.902 74.98C233.542 74.74 233.158 74.564 232.75 74.452C232.35 74.34 231.962 74.284 231.586 74.284C231.082 74.284 230.666 74.352 230.338 74.488C230.01 74.624 229.766 74.808 229.606 75.04C229.454 75.264 229.378 75.52 229.378 75.808C229.378 76.136 229.47 76.4 229.654 76.6C229.846 76.8 230.094 76.956 230.398 77.068C230.71 77.18 231.05 77.28 231.418 77.368C231.786 77.456 232.15 77.552 232.51 77.656C232.878 77.76 233.214 77.896 233.518 78.064C233.83 78.224 234.078 78.44 234.262 78.712C234.454 78.984 234.55 79.34 234.55 79.78C234.55 80.188 234.438 80.568 234.214 80.92C233.99 81.264 233.646 81.544 233.182 81.76C232.726 81.968 232.138 82.072 231.418 82.072Z" fill="white"/>
<path d="M15.2106 0C15.2106 0 29.7506 5.97659 18.3092 27.9553C6.86856 49.934 3.055 55.1399 3.055 55.1399C3.055 55.1399 -8.14735 71.3345 12.351 81.5532C12.351 81.5532 34.5126 90.8073 45 91C45 91 3.29331 79.2393 15.4496 57.4532L32.3719 26.6058C32.3719 26.6058 43.5749 7.32605 15.2106 0Z" fill="#7B0202"/>
<path d="M37.0206 25C37.0206 25 45.9463 29.6329 36.7857 43.3384C27.6244 57.0445 24.8055 60.3257 24.8055 60.3257C24.8055 60.3257 16.3495 70.3639 28.7986 78.0853C28.7986 78.0853 42.4228 85.2278 49 86C49 86 23.1609 76.1553 32.557 62.6425L45.7121 43.3384C45.9469 43.1456 54.6385 31.1768 37.0206 25Z" fill="#7B0202"/>
</svg>
