<svg width="81" height="75" viewBox="0 0 81 75" fill="none" xmlns="http://www.w3.org/2000/svg">
<path d="M75.9407 69.7791H74.045H68.8558H61.2157H51.9001H41.7037H31.3638H21.7802H13.6901H7.86909C6.96913 69.7791 6.06921 69.7872 5.16918 69.7791C5.04472 69.7791 4.92983 69.7791 4.80537 69.7627C5.06388 69.7954 5.31279 69.8199 5.5713 69.8525C5.36067 69.828 5.1596 69.7791 4.95856 69.7056C5.18833 69.7872 5.41811 69.8689 5.64789 69.9505C5.62874 69.9423 5.31279 69.8117 5.32236 69.7954C5.33194 69.7872 5.95426 70.2525 5.5713 69.9423C5.33194 69.7464 5.57129 69.7301 5.74363 70.1546C5.70533 70.0566 5.61917 69.9668 5.56172 69.877L5.84893 70.4648C5.76277 70.2933 5.7149 70.1219 5.6766 69.9423C5.7149 70.1627 5.74362 70.375 5.78191 70.5954C5.7149 69.9586 5.76276 69.3056 5.76276 68.6689V63.9423V56.9136V48.3257V38.9132V29.4111V20.513V13.068V7.68833C5.76276 6.85567 5.75319 6.02304 5.76276 5.19039C5.76276 5.08426 5.76277 4.97814 5.78191 4.87202C5.74362 5.09243 5.7149 5.30467 5.6766 5.52509C5.70532 5.3455 5.76277 5.17406 5.84893 5.00263L5.56172 5.5904C5.57129 5.57407 5.72447 5.30467 5.74363 5.31284C5.7532 5.321 5.20748 5.85162 5.5713 5.52509C5.80107 5.321 5.82022 5.52509 5.32236 5.67203C5.43725 5.63938 5.54257 5.56591 5.64789 5.51692L4.95856 5.76182C5.1596 5.68835 5.36067 5.64753 5.5713 5.61488C5.31279 5.64753 5.06388 5.67202 4.80537 5.70467C5.50428 5.64753 6.21277 5.68835 6.91162 5.68835H12.0338H19.674H29.0182H39.2146H49.5545H59.1955H67.2952H73.1259C74.0354 5.68835 74.945 5.68018 75.8449 5.68835C75.9694 5.68835 76.0843 5.68835 76.2087 5.70467C75.9502 5.67202 75.7013 5.64753 75.4428 5.61488C75.6534 5.63937 75.8545 5.68835 76.0555 5.76182L75.3662 5.51692C75.3853 5.52508 75.7013 5.6557 75.6917 5.67203C75.6821 5.68019 75.0598 5.21488 75.4428 5.52509C75.6821 5.72101 75.4428 5.73734 75.2704 5.31284C75.3087 5.4108 75.3949 5.50059 75.4524 5.5904L75.1651 5.00263C75.2513 5.17406 75.2992 5.3455 75.3375 5.52509C75.2992 5.30467 75.2705 5.09243 75.2322 4.87202C75.2992 5.50876 75.2513 6.16183 75.2513 6.79854V11.5251V18.5538V27.1417V36.5542V46.0563V54.9544V62.3994V67.7791C75.2513 68.6117 75.2609 69.4444 75.2513 70.277C75.2513 70.3831 75.2513 70.4893 75.2322 70.5954C75.2705 70.375 75.2992 70.1627 75.3375 69.9423C75.3088 70.1219 75.2513 70.2933 75.1651 70.4648L75.4524 69.877C75.4428 69.8933 75.2896 70.1627 75.2704 70.1546C75.2609 70.1464 75.8066 69.6158 75.4428 69.9423C75.213 70.1464 75.1938 69.9423 75.6917 69.7954C75.5768 69.828 75.4715 69.9015 75.3662 69.9505C75.596 69.8689 75.8257 69.7872 76.0555 69.7056C75.8545 69.7791 75.6534 69.8199 75.4428 69.8525C75.7013 69.8199 75.9502 69.7954 76.2087 69.7627C76.1225 69.7791 76.0364 69.7791 75.9406 69.7791C74.4375 69.8199 73.0014 70.8811 73.0685 72.228C73.1355 73.526 74.3322 74.7179 75.9406 74.677C78.7746 74.6036 80.9767 72.7096 80.9957 70.2851V69.4769V65.583V59.24V51.1582V42.007V32.57V23.525V15.5737V9.42666V5.78572C80.9957 5.5653 81.0053 5.3449 80.9957 5.12448C80.9383 2.72446 78.7458 0.838688 75.9216 0.789727C75.079 0.773401 74.2365 0.789727 73.3939 0.789727H67.2569H58.5253H48.1565H37.1176H26.3756H16.8972H9.64968H5.59981C5.34131 0.789727 5.07324 0.781563 4.81474 0.806054C2.18188 0.99381 0.266979 2.62645 0.0276601 4.86331C0.018086 4.96944 0.00851067 5.07556 0.00851067 5.18985C-0.00106331 6.01435 0.00851067 6.83066 0.00851067 7.65525V12.9043V20.235V28.9779V38.3495V47.6721V56.2437V63.354V68.2929C0.00851067 68.9786 -0.0106383 69.6725 0.00851067 70.3582C0.0659542 72.7583 2.26795 74.6358 5.09233 74.6848C5.36039 74.693 5.6189 74.6848 5.88698 74.6848H10.4155H18.0077H27.7061H38.5439H49.5542H59.7698H68.214H73.9297H75.9498C77.4529 74.6848 78.889 73.5582 78.822 72.2358C78.7454 70.9052 77.5582 69.7786 75.9402 69.7786L75.9407 69.7791Z" fill="white"/>
<path d="M64.9397 61.4196H60.0474H48.3192H34.1495H21.9521C20.0085 61.4196 18.0651 61.4359 16.1311 61.4196C16.0162 61.4196 15.9109 61.4114 15.8056 61.4033C16.0641 61.4359 16.313 61.4604 16.5715 61.4931C16.3991 61.4686 16.246 61.4359 16.0832 61.3869L16.7725 61.6318C16.763 61.6237 16.4279 61.5012 16.4374 61.4849C16.447 61.4767 17.0597 61.942 16.6864 61.64C16.4374 61.4359 16.7247 61.4604 16.8683 61.8523C16.8396 61.7625 16.7438 61.6563 16.6959 61.5665C16.7917 61.7625 16.8874 61.9584 16.9832 62.1543C16.9257 62.0155 16.8778 61.8849 16.8587 61.738C16.897 61.9584 16.9257 62.1706 16.964 62.391C16.9161 61.991 16.9449 61.591 16.9449 61.191V58.4236V49.2561V38.1866V28.6273C16.9449 27.0926 16.9257 25.5579 16.9449 24.0231C16.9449 23.9333 16.9544 23.8435 16.964 23.7455C16.9257 23.9659 16.897 24.1782 16.8587 24.3986C16.8874 24.2516 16.9257 24.121 16.9832 23.9822C16.8874 24.1782 16.7917 24.3741 16.6959 24.57C16.7055 24.5618 16.8491 24.2761 16.8683 24.2843C16.8778 24.2924 16.3321 24.8149 16.6864 24.4965C16.9257 24.2843 16.897 24.5292 16.4374 24.6516C16.5427 24.6272 16.6672 24.5455 16.7725 24.5047L16.0832 24.7496C16.246 24.7006 16.3991 24.6598 16.5715 24.6435C16.313 24.6761 16.0641 24.7006 15.8056 24.7333C16.3034 24.6925 16.8108 24.7169 17.3183 24.7169H20.8702H32.5984H46.7585H58.9846C60.9473 24.7169 62.91 24.7006 64.8727 24.7169C64.9876 24.7169 65.0929 24.7251 65.1982 24.7333C64.9397 24.7006 64.6908 24.6761 64.4323 24.6435C64.6046 24.668 64.7578 24.7006 64.9206 24.7496L64.2312 24.5047C64.2408 24.5129 64.5759 24.6353 64.5663 24.6516C64.5567 24.6598 63.944 24.1945 64.3174 24.4965C64.5663 24.7006 64.2791 24.6761 64.1355 24.2843C64.1642 24.3741 64.2599 24.4802 64.3078 24.57L64.0206 23.9822C64.078 24.121 64.1259 24.2516 64.1451 24.3986C64.1068 24.1782 64.078 23.9659 64.0397 23.7455C64.0876 24.1455 64.0589 24.5455 64.0589 24.9455V27.7129V36.8804V47.9499V57.5093C64.0589 59.044 64.078 60.5786 64.0589 62.1135C64.0589 62.2033 64.0493 62.2931 64.0397 62.391C64.078 62.1706 64.1068 61.9584 64.1451 61.738C64.1163 61.8849 64.078 62.0155 64.0206 62.1543L64.3078 61.5665C64.2982 61.5747 64.1546 61.8604 64.1355 61.8523C64.1259 61.8441 64.6716 61.3216 64.3174 61.64C64.078 61.8523 64.1068 61.6074 64.5663 61.4849C64.461 61.5094 64.3365 61.591 64.2312 61.6318L64.9206 61.3869C64.7578 61.4359 64.6046 61.4767 64.4323 61.4931C64.6908 61.4604 64.9397 61.4359 65.1982 61.4033C65.1216 61.4196 65.0259 61.4196 64.9397 61.4196C63.4366 61.4604 62.0005 62.5135 62.0675 63.8686C62.1345 65.1584 63.3313 66.3585 64.9397 66.3176C67.6492 66.2441 69.7555 64.4645 69.8225 62.1461V61.7216V59.2562V49.7051V37.6968V27.6557V24.7659V24.0802C69.813 22.97 69.3821 21.9659 68.5205 21.1332C67.5918 20.2434 66.213 19.8026 64.844 19.7944H64.1451H61.0623H49.9469H35.94H23.2447H16.3801H15.9301C13.2685 19.9006 11.2484 21.7129 11.1814 23.9659C11.1622 24.4475 11.1814 24.9292 11.1814 25.4108V33.713V45.4927V56.4236C11.1814 58.293 11.1718 60.1707 11.1814 62.04C11.2005 64.4318 13.3643 66.2931 16.179 66.3095C16.8492 66.3177 17.5098 66.3095 18.1801 66.3095H27.9552H41.6557H55.0499H63.7336H64.9495C66.4527 66.3095 67.8888 65.183 67.8217 63.8606C67.7451 62.5463 66.5484 61.4196 64.9399 61.4196L64.9397 61.4196Z" fill="white"/>
<path d="M16.571 12.7343C16.571 12.8078 16.5614 12.8813 16.5519 12.9547C16.5902 12.7343 16.6189 12.5221 16.6572 12.3017C16.6285 12.4486 16.5902 12.5792 16.5231 12.718C16.6189 12.5221 16.7146 12.3262 16.8104 12.1302C16.7721 12.2037 16.6955 12.2853 16.6667 12.367C16.5902 12.5547 17.155 11.9016 16.8487 12.1547C16.571 12.3914 17.1359 11.9506 17.1455 11.9751C17.155 11.9914 16.8295 12.1221 16.8199 12.1221C17.0497 12.0404 17.2795 11.9588 17.5093 11.8772C17.3465 11.9261 17.1933 11.967 17.021 11.9914C17.2795 11.9588 17.5284 11.9343 17.7869 11.9017C17.6146 11.918 17.4422 11.918 17.2699 11.9017C17.5284 11.9343 17.7773 11.9588 18.0358 11.9914C17.8635 11.967 17.7103 11.9343 17.5476 11.8772C17.7773 11.9588 18.0071 12.0404 18.2369 12.1221C18.1507 12.0894 18.055 12.0241 17.9592 11.9996C17.739 11.9343 18.505 12.4159 18.2082 12.1547C17.9305 11.918 18.4475 12.3996 18.4188 12.4078C18.3996 12.4159 18.2465 12.1384 18.2465 12.1302C18.3422 12.3261 18.438 12.5221 18.5337 12.718C18.4762 12.5792 18.4284 12.4486 18.3996 12.3016C18.4379 12.5221 18.4667 12.7343 18.505 12.9547C18.4858 12.8078 18.4858 12.6608 18.505 12.5139C18.4667 12.7343 18.4379 12.9466 18.3996 13.167C18.4284 13.02 18.4667 12.8894 18.5337 12.7506C18.4379 12.9466 18.3422 13.1425 18.2465 13.3384C18.2848 13.2649 18.3614 13.1833 18.3901 13.1017C18.4667 12.9139 17.9018 13.567 18.2082 13.3139C18.4858 13.0772 17.9209 13.518 17.9114 13.4935C17.9018 13.4772 18.2273 13.3466 18.2369 13.3466C18.0071 13.4282 17.7773 13.5098 17.5476 13.5915C17.7103 13.5425 17.8635 13.5017 18.0358 13.4772C17.7773 13.5098 17.5284 13.5343 17.2699 13.567C17.4422 13.5507 17.6146 13.5507 17.7869 13.567C17.5284 13.5343 17.2795 13.5098 17.021 13.4772C17.1933 13.5017 17.3465 13.5343 17.5093 13.5915C17.2795 13.5098 17.0497 13.4282 16.8199 13.3466C16.9061 13.3792 17.0018 13.4445 17.0976 13.469C17.3178 13.5343 16.5519 13.0527 16.8486 13.3139C17.1263 13.5506 16.6093 13.069 16.638 13.0608C16.6572 13.0527 16.8104 13.3302 16.8104 13.3384C16.7146 13.1425 16.6189 12.9466 16.5231 12.7506C16.5806 12.8894 16.6285 13.02 16.6572 13.167C16.6189 12.9466 16.5902 12.7343 16.5519 12.5139C16.5614 12.5874 16.571 12.6609 16.571 12.7343C16.6189 14.016 17.8539 15.2405 19.4432 15.1833C20.9559 15.1262 22.3728 14.1057 22.3154 12.7343C22.2292 10.5221 20.1899 8.65259 17.5283 8.65259C14.9241 8.65259 12.7412 10.5139 12.7412 12.7343C12.7412 14.9548 14.9241 16.8161 17.5283 16.8161C20.1995 16.8161 22.2292 14.9548 22.3154 12.7343C22.3632 11.4527 20.9559 10.2282 19.4432 10.2853C17.8443 10.3425 16.6188 11.3629 16.571 12.7343V12.7343Z" fill="white"/>
<path d="M62.5271 12.7343C62.5271 12.8078 62.5175 12.8813 62.5079 12.9547C62.5462 12.7343 62.5749 12.5221 62.6132 12.3017C62.5845 12.4486 62.5462 12.5792 62.4792 12.718C62.5749 12.5221 62.6707 12.3262 62.7664 12.1302C62.7281 12.2037 62.6515 12.2853 62.6228 12.367C62.5462 12.5547 63.1111 11.9016 62.8047 12.1547C62.5271 12.3914 63.0919 11.9506 63.1015 11.9751C63.1111 11.9914 62.7856 12.1221 62.776 12.1221C63.0058 12.0404 63.2355 11.9588 63.4653 11.8772C63.3026 11.9261 63.1494 11.967 62.977 11.9914C63.2355 11.9588 63.4845 11.9343 63.743 11.9017C63.5706 11.918 63.3983 11.918 63.226 11.9017C63.4845 11.9343 63.7334 11.9588 63.9919 11.9914C63.8196 11.967 63.6664 11.9343 63.5036 11.8772C63.7334 11.9588 63.9632 12.0404 64.1929 12.1221C64.1068 12.0894 64.011 12.0241 63.9153 11.9996C63.6951 11.9343 64.461 12.4159 64.1642 12.1547C63.8866 11.918 64.4036 12.3996 64.3749 12.4078C64.3557 12.4159 64.2025 12.1384 64.2025 12.1302C64.2983 12.3261 64.394 12.5221 64.4897 12.718C64.4323 12.5792 64.3844 12.4486 64.3557 12.3016C64.394 12.5221 64.4227 12.7343 64.461 12.9547C64.4419 12.8078 64.4419 12.6608 64.461 12.5139C64.4227 12.7343 64.394 12.9466 64.3557 13.167C64.3844 13.02 64.4227 12.8894 64.4897 12.7506C64.394 12.9466 64.2982 13.1425 64.2025 13.3384C64.2408 13.2649 64.3174 13.1833 64.3461 13.1017C64.4227 12.9139 63.8578 13.567 64.1642 13.3139C64.4419 13.0772 63.877 13.518 63.8674 13.4935C63.8578 13.4772 64.1834 13.3466 64.1929 13.3466C63.9632 13.4282 63.7334 13.5098 63.5036 13.5915C63.6664 13.5425 63.8196 13.5017 63.9919 13.4772C63.7334 13.5098 63.4845 13.5343 63.226 13.567C63.3983 13.5507 63.5706 13.5507 63.743 13.567C63.4845 13.5343 63.2355 13.5098 62.977 13.4772C63.1494 13.5017 63.3026 13.5343 63.4653 13.5915C63.2355 13.5098 63.0058 13.4282 62.776 13.3466C62.8622 13.3792 62.9579 13.4445 63.0536 13.469C63.2738 13.5343 62.5079 13.0527 62.8047 13.3139C63.0823 13.5506 62.5654 13.069 62.5941 13.0608C62.6132 13.0527 62.7664 13.3302 62.7664 13.3384C62.6707 13.1425 62.5749 12.9466 62.4792 12.7506C62.5366 12.8894 62.5845 13.02 62.6132 13.167C62.5749 12.9466 62.5462 12.7343 62.5079 12.5139C62.5271 12.5874 62.5271 12.6609 62.5271 12.7343C62.5749 14.016 63.81 15.2405 65.3992 15.1833C66.9119 15.1262 68.3288 14.1057 68.2714 12.7343C68.1853 10.5221 66.1459 8.65259 63.4843 8.65259C60.8802 8.65259 58.6973 10.5139 58.6973 12.7343C58.6973 14.9548 60.8802 16.8161 63.4843 16.8161C66.1555 16.8161 68.1853 14.9548 68.2714 12.7343C68.3193 11.4527 66.9119 10.2282 65.3992 10.2853C63.8004 10.3425 62.5845 11.3629 62.5271 12.7343V12.7343Z" fill="white"/>
<path d="M31.8903 12.7343C31.8903 12.8078 31.8808 12.8813 31.8712 12.9547C31.9095 12.7343 31.9382 12.5221 31.9765 12.3017C31.9478 12.4486 31.9095 12.5792 31.8425 12.718C31.9382 12.5221 32.034 12.3262 32.1297 12.1302C32.0914 12.2037 32.0148 12.2853 31.9861 12.367C31.9095 12.5547 32.4744 11.9016 32.168 12.1547C31.8904 12.3914 32.4552 11.9506 32.4648 11.9751C32.4744 11.9914 32.1488 12.1221 32.1393 12.1221C32.369 12.0404 32.5988 11.9588 32.8286 11.8772C32.6658 11.9261 32.5127 11.967 32.3403 11.9914C32.5988 11.9588 32.8477 11.9343 33.1062 11.9017C32.9339 11.918 32.7616 11.918 32.5892 11.9017C32.8478 11.9343 33.0967 11.9588 33.3552 11.9914C33.1828 11.967 33.0296 11.9343 32.8669 11.8772C33.0967 11.9588 33.3264 12.0404 33.5562 12.1221C33.4701 12.0894 33.3743 12.0241 33.2786 11.9996C33.0584 11.9343 33.8243 12.4159 33.5275 12.1547C33.2499 11.918 33.7669 12.3996 33.7381 12.4078C33.719 12.4159 33.5658 12.1384 33.5658 12.1302C33.6615 12.3261 33.7573 12.5221 33.853 12.718C33.7956 12.5792 33.7477 12.4486 33.719 12.3016C33.7573 12.5221 33.786 12.7343 33.8243 12.9547C33.8051 12.8078 33.8051 12.6608 33.8243 12.5139C33.786 12.7343 33.7573 12.9466 33.719 13.167C33.7477 13.02 33.786 12.8894 33.853 12.7506C33.7573 12.9466 33.6615 13.1425 33.5658 13.3384C33.6041 13.2649 33.6807 13.1833 33.7094 13.1017C33.786 12.9139 33.2211 13.567 33.5275 13.3139C33.8051 13.0772 33.2403 13.518 33.2307 13.4935C33.2211 13.4772 33.5466 13.3466 33.5562 13.3466C33.3264 13.4282 33.0967 13.5098 32.8669 13.5915C33.0297 13.5425 33.1828 13.5017 33.3552 13.4772C33.0967 13.5098 32.8478 13.5343 32.5893 13.567C32.7616 13.5507 32.9339 13.5507 33.1063 13.567C32.8477 13.5343 32.5988 13.5098 32.3403 13.4772C32.5127 13.5017 32.6658 13.5343 32.8286 13.5915C32.5988 13.5098 32.3691 13.4282 32.1393 13.3466C32.2254 13.3792 32.3212 13.4445 32.4169 13.469C32.6371 13.5343 31.8712 13.0527 32.168 13.3139C32.4456 13.5506 31.9286 13.069 31.9574 13.0608C31.9765 13.0527 32.1297 13.3302 32.1297 13.3384C32.034 13.1425 31.9382 12.9466 31.8425 12.7506C31.8999 12.8894 31.9478 13.02 31.9765 13.167C31.9382 12.9466 31.9095 12.7343 31.8712 12.5139C31.8808 12.5874 31.8903 12.6609 31.8903 12.7343C31.9382 14.016 33.1733 15.2405 34.7625 15.1833C36.2752 15.1262 37.6921 14.1057 37.6347 12.7343C37.5485 10.5221 35.5092 8.65259 32.8476 8.65259C30.2435 8.65259 28.0605 10.5139 28.0605 12.7343C28.0605 14.9548 30.2435 16.8161 32.8476 16.8161C35.5188 16.8161 37.5486 14.9548 37.6347 12.7343C37.6826 11.4527 36.2752 10.2282 34.7625 10.2853C33.1637 10.3425 31.9478 11.3629 31.8903 12.7343V12.7343Z" fill="white"/>
<path d="M47.2087 12.7343C47.2087 12.8078 47.1991 12.8813 47.1896 12.9547C47.2279 12.7343 47.2566 12.5221 47.2949 12.3017C47.2662 12.4486 47.2279 12.5792 47.1608 12.718C47.2566 12.5221 47.3523 12.3262 47.4481 12.1302C47.4098 12.2037 47.3332 12.2853 47.3044 12.367C47.2279 12.5547 47.7927 11.9016 47.4864 12.1547C47.2087 12.3914 47.7736 11.9506 47.7832 11.9751C47.7927 11.9914 47.4672 12.1221 47.4576 12.1221C47.6874 12.0404 47.9172 11.9588 48.147 11.8772C47.9842 11.9261 47.831 11.967 47.6587 11.9914C47.9172 11.9588 48.1661 11.9343 48.4246 11.9017C48.2523 11.918 48.0799 11.918 47.9076 11.9017C48.1661 11.9343 48.415 11.9588 48.6735 11.9914C48.5012 11.967 48.348 11.9343 48.1852 11.8772C48.415 11.9588 48.6448 12.0404 48.8746 12.1221C48.7884 12.0894 48.6927 12.0241 48.5969 11.9996C48.3767 11.9343 49.1427 12.4159 48.8459 12.1547C48.5682 11.918 49.0852 12.3996 49.0565 12.4078C49.0373 12.4159 48.8842 12.1384 48.8842 12.1302C48.9799 12.3261 49.0757 12.5221 49.1714 12.718C49.1139 12.5792 49.0661 12.4486 49.0373 12.3016C49.0756 12.5221 49.1044 12.7343 49.1427 12.9547C49.1235 12.8078 49.1235 12.6608 49.1427 12.5139C49.1044 12.7343 49.0756 12.9466 49.0373 13.167C49.0661 13.02 49.1044 12.8894 49.1714 12.7506C49.0756 12.9466 48.9799 13.1425 48.8842 13.3384C48.9225 13.2649 48.999 13.1833 49.0278 13.1017C49.1044 12.9139 48.5395 13.567 48.8459 13.3139C49.1235 13.0772 48.5586 13.518 48.5491 13.4935C48.5395 13.4772 48.865 13.3466 48.8746 13.3466C48.6448 13.4282 48.415 13.5098 48.1853 13.5915C48.348 13.5425 48.5012 13.5017 48.6735 13.4772C48.415 13.5098 48.1661 13.5343 47.9076 13.567C48.0799 13.5507 48.2523 13.5507 48.4246 13.567C48.1661 13.5343 47.9172 13.5098 47.6587 13.4772C47.831 13.5017 47.9842 13.5343 48.147 13.5915C47.9172 13.5098 47.6874 13.4282 47.4576 13.3466C47.5438 13.3792 47.6395 13.4445 47.7353 13.469C47.9555 13.5343 47.1896 13.0527 47.4863 13.3139C47.764 13.5506 47.247 13.069 47.2757 13.0608C47.2949 13.0527 47.4481 13.3302 47.4481 13.3384C47.3523 13.1425 47.2566 12.9466 47.1608 12.7506C47.2183 12.8894 47.2662 13.02 47.2949 13.167C47.2566 12.9466 47.2279 12.7343 47.1896 12.5139C47.1991 12.5874 47.2087 12.6609 47.2087 12.7343C47.2566 14.016 48.4916 15.2405 50.0809 15.1833C51.5936 15.1262 53.0105 14.1057 52.9531 12.7343C52.8669 10.5221 50.8275 8.65259 48.166 8.65259C45.5618 8.65259 43.3789 10.5139 43.3789 12.7343C43.3789 14.9548 45.5618 16.8161 48.166 16.8161C50.8372 16.8161 52.8669 14.9548 52.9531 12.7343C53.0009 11.4527 51.5935 10.2282 50.0809 10.2853C48.482 10.3425 47.2661 11.3629 47.2087 12.7343V12.7343Z" fill="white"/>
<path d="M50.5115 47.4938C50.5115 47.9836 50.4732 48.4734 50.3966 48.9632C50.4349 48.7428 50.4636 48.5306 50.5019 48.3102C50.3487 49.2571 50.0519 50.1795 49.6307 51.0613C49.7264 50.8653 49.8222 50.6694 49.9179 50.4735C49.6019 51.1184 49.2094 51.7388 48.7594 52.3184C48.6541 52.449 48.5488 52.5878 48.4339 52.7102C48.2999 52.8653 47.9743 53.151 48.5775 52.5551C48.5201 52.6122 48.4722 52.6694 48.4243 52.7184C48.1563 52.9959 47.8786 53.2572 47.5818 53.5102C47.3042 53.747 47.0074 53.9755 46.701 54.196C46.6627 54.2205 46.4904 54.3674 46.4617 54.3674C46.4999 54.3674 47.1127 53.9592 46.6914 54.2123C46.5382 54.3021 46.3851 54.4 46.2319 54.4898C45.533 54.8898 44.7862 55.2245 44.0106 55.5103L44.6999 55.2654C43.6659 55.6327 42.5841 55.8776 41.4734 56.0082C41.7319 55.9756 41.9808 55.9511 42.2393 55.9184C41.0905 56.0409 39.9319 56.0409 38.7831 55.9184C39.0416 55.9511 39.2906 55.9756 39.5491 56.0082C38.3906 55.8695 37.2609 55.6082 36.1886 55.2245C36.4184 55.3062 36.6482 55.3878 36.878 55.4694C36.1408 55.2001 35.4323 54.8735 34.7524 54.4898C34.5993 54.4 34.4461 54.3021 34.2833 54.2123C33.8812 53.9674 34.4461 54.3592 34.5131 54.3674C34.4365 54.3511 34.3216 54.2368 34.2642 54.196C33.9578 53.9837 33.661 53.7551 33.3738 53.5102C33.1057 53.2817 32.8472 53.0449 32.6079 52.8C32.5408 52.7347 32.4738 52.6612 32.4068 52.5959C32.1866 52.3837 32.8472 53.1021 32.5887 52.7918C32.4738 52.6612 32.3685 52.5306 32.2632 52.4C31.8036 51.8204 31.4111 51.2081 31.0856 50.5632L31.3728 51.151C30.9611 50.3101 30.6739 49.4285 30.5207 48.5224C30.559 48.7428 30.5877 48.9551 30.626 49.1755C30.4824 48.2448 30.4728 47.3061 30.6069 46.3754C30.5686 46.5958 30.5399 46.8081 30.5016 47.0285C30.6547 46.0652 30.9707 45.1345 31.4015 44.2366C31.3058 44.4325 31.21 44.6284 31.1143 44.8244C31.8132 43.4366 32.7993 42.1876 33.6994 40.8897C34.628 39.5427 35.4418 37.9917 35.3174 36.3916C33.8813 37.0937 32.4356 37.8039 30.9995 38.5059C31.3729 38.7263 31.7463 38.9549 32.1101 39.1835L32.3399 39.3304C32.6079 39.5019 31.7367 38.9223 32.0622 39.1508C32.2154 39.257 32.359 39.3549 32.5026 39.461C33.0292 39.8447 33.4983 40.2692 33.9579 40.7182C34.2164 40.9794 33.5271 40.2284 33.7185 40.4488C33.7664 40.506 33.8143 40.5631 33.8621 40.6202C33.9675 40.7509 34.0728 40.8815 34.1781 41.0121C34.3887 41.2896 34.5898 41.5754 34.7813 41.8692C35.2982 42.6448 35.7482 43.4529 36.1886 44.2611C36.6674 45.1345 38.0172 45.5509 39.0514 45.4284C40.2385 45.2896 41.0428 44.6121 41.4353 43.6733C42.2108 41.8447 42.8427 40.065 43.1107 38.1221C43.4745 35.5098 42.9576 32.8241 42.1438 30.3097C40.7364 31.2322 39.329 32.1546 37.9216 33.0771C39.2046 33.6077 40.4493 34.2036 41.6268 34.873C41.8853 35.0199 42.1438 35.175 42.4023 35.3301C42.5172 35.4036 42.6321 35.4689 42.747 35.5424C42.8044 35.575 42.8618 35.6159 42.9193 35.6485C43.2927 35.8934 42.8236 35.6077 42.7278 35.5179C43.1299 35.8852 43.6852 36.1791 44.1256 36.522C44.9777 37.1832 45.7819 37.8934 46.5095 38.6445C46.5861 38.7262 46.6627 38.7996 46.7393 38.8813C46.7776 38.9221 46.8159 38.9629 46.8542 38.9955C47.0648 39.216 46.4234 38.5139 46.6244 38.7343C46.7872 38.9221 46.9499 39.1017 47.1031 39.2894C47.3903 39.6405 47.668 39.9915 47.9265 40.3588C48.4818 41.1344 48.9701 41.9425 49.3818 42.7833C49.286 42.5874 49.1903 42.3915 49.0945 42.1956C49.7647 43.5507 50.2434 44.9712 50.4732 46.4242C50.4349 46.2038 50.4062 45.9915 50.3679 45.7711C50.4541 46.3589 50.5019 46.9303 50.5115 47.4936C50.5115 48.7752 51.8327 49.9998 53.3837 49.9426C54.9347 49.8854 56.2559 48.865 56.2559 47.4936C56.2367 41.8527 52.6655 36.3506 47.7445 32.7342C45.6477 31.1913 43.3309 29.8933 40.8321 28.8565C39.7694 28.4157 38.6109 28.4075 37.644 29.0442C36.744 29.6402 36.3036 30.6606 36.61 31.6158C36.9546 32.6852 37.2419 33.771 37.4142 34.8729C37.3759 34.6525 37.3472 34.4403 37.3089 34.2199C37.5195 35.5831 37.5482 36.9546 37.3376 38.3179C37.3759 38.0975 37.4046 37.8852 37.4429 37.6648C37.1748 39.2976 36.5525 40.8322 35.9015 42.3669C37.6536 42.171 39.4057 41.9751 41.1481 41.7792C40.2577 40.171 39.329 38.6362 38.0077 37.2403C36.878 36.0403 35.3558 35.1342 33.8908 34.2607C32.1483 33.2239 29.4294 34.5954 29.5729 36.375C29.5921 36.6199 29.5825 36.8648 29.5442 37.1097C29.5825 36.8893 29.6112 36.677 29.6495 36.4566C29.5825 36.8811 29.4293 37.2811 29.2378 37.6811C29.3336 37.4852 29.4293 37.2893 29.525 37.0934C28.9602 38.2199 28.1272 39.2322 27.3995 40.2771C26.423 41.6812 25.5804 43.1914 25.1592 44.7914C24.2113 48.3588 25.0443 52.3099 27.6292 55.2568C30.1472 58.1221 33.8044 60.2039 38.0171 60.71C40.2862 60.9875 42.5552 60.9304 44.7763 60.3998C46.9018 59.8855 48.7975 58.9875 50.5207 57.8202C54.1588 55.3467 56.2269 51.42 56.2556 47.4771C56.2652 46.1955 54.9248 44.971 53.3834 45.0281C51.8133 45.1098 50.5112 46.122 50.5112 47.4936L50.5115 47.4938Z" fill="#DA1930"/>
</svg>
