<svg width="80" height="60" viewBox="0 0 80 60" fill="none" xmlns="http://www.w3.org/2000/svg">
<g clip-path="url(#clip0_1359_141)">
<path d="M42.1657 27.612L38.0054 23.7279C38.6969 21.2552 40.8562 12.0169 36.0078 7.49026C30.7058 2.5405 13.0376 0.111524 12.288 0.0105064C11.9403 -0.0357974 11.5904 0.0725417 11.3424 0.304061C11.0944 0.53558 10.978 0.862676 11.028 1.1868C11.1362 1.8866 13.7378 18.3818 19.0396 23.3317C21.0799 25.2366 24.2225 26.2024 28.38 26.2024C31.8622 26.2024 35.09 25.5211 36.4313 25.1961L40.5923 29.0809C40.8096 29.2836 41.0942 29.3851 41.379 29.3851C41.6638 29.3851 41.9484 29.2836 42.1657 29.0809C42.6002 28.6752 42.6002 28.0175 42.1657 27.612ZM28.3801 24.1251C24.8342 24.1251 22.2209 23.364 20.613 21.8628C18.6716 20.0503 16.7821 15.8779 15.1486 9.79675C14.3286 6.74445 13.7662 3.91032 13.4716 2.29176C15.2053 2.56682 18.2408 3.09189 21.5103 3.85749C28.024 5.38255 32.4931 7.14664 34.4346 8.95912C37.8666 12.1632 36.8727 18.8324 36.1514 21.9969L29.406 15.6995V11.8181C29.406 11.2445 28.908 10.7795 28.2936 10.7795C27.6793 10.7795 27.1812 11.2445 27.1812 11.8181V13.6223L22.1526 8.92766C21.718 8.52221 21.0138 8.52221 20.5793 8.92766C20.1448 9.33331 20.1448 9.99087 20.5793 10.3965L21.759 11.4979H19.8263C19.212 11.4979 18.7139 11.9629 18.7139 12.5365C18.7139 13.11 19.212 13.5751 19.8263 13.5751H23.984L29.4565 18.6842H27.5237C26.9093 18.6842 26.4113 19.1492 26.4113 19.7228C26.4113 20.2963 26.9092 20.7614 27.5237 20.7614L31.6815 20.7615L34.5798 23.4673C33.0535 23.771 30.7633 24.1251 28.3801 24.1251Z" fill="#49D626"/>
</g>
<rect x="1.80255" y="1.70285" width="31.9075" height="8.21037" rx="3.25" transform="matrix(0.999649 -0.0264797 0.0303767 0.999538 -0.051095 36.9828)" fill="#272726" stroke="white" stroke-width="3.5"/>
<rect x="1.80255" y="1.70285" width="31.9075" height="8.21037" rx="3.25" transform="matrix(0.999649 -0.0264797 0.0303767 0.999538 36.1452 36.2481)" fill="#272726" stroke="white" stroke-width="3.5"/>
<rect x="2.18666" y="1.24789" width="31.7515" height="8.26925" rx="3.25" transform="matrix(0.96907 -0.246786 0.280449 0.959869 33.5536 48.9591)" fill="#272726" stroke="white" stroke-width="3.5"/>
<rect x="1.57716" y="1.88756" width="31.8913" height="8.21651" rx="3.25" transform="matrix(0.996536 0.0831594 -0.0953045 0.995448 37.4979 23.3855)" fill="#272726" stroke="white" stroke-width="3.5"/>
<rect x="1.16284" y="2.13198" width="31.7285" height="8.2779" rx="3.25" transform="matrix(0.964435 0.264319 -0.299957 0.953953 46.7053 29.1758)" fill="#272726" stroke="white" stroke-width="3.5"/>
<path d="M10.3654 44.5558L35.235 49.3C36.9982 49.6363 38.1164 51.3304 37.7326 53.0838L37.3597 54.7877C36.9759 56.5411 35.2355 57.6899 33.4724 57.3535L8.60278 52.6093C6.83965 52.273 5.72145 50.5789 6.10521 48.8255L6.47812 47.1216C6.86188 45.3682 8.60227 44.2194 10.3654 44.5558Z" fill="#272726" stroke="white" stroke-width="3.5"/>
<rect x="2.10074" y="1.37147" width="31.8135" height="8.2459" rx="3.25" transform="matrix(0.981391 -0.192019 0.219029 0.975718 5.24651 32.1949)" fill="#272726" stroke="white" stroke-width="3.5"/>
<defs>
<clipPath id="clip0_1359_141">
<rect width="31.4749" height="29.3851" fill="white" transform="translate(11.0166)"/>
</clipPath>
</defs>
</svg>
