<svg width="102" height="82" viewBox="0 0 102 82" fill="none" xmlns="http://www.w3.org/2000/svg">
<path d="M53.5859 37.5864L48.2987 32.2992C49.1775 28.9333 51.9218 16.3578 45.7602 10.196C39.0221 3.45822 16.5684 0.151811 15.6158 0.0143017C15.1739 -0.0487287 14.7292 0.0987464 14.4141 0.413899C14.0989 0.729051 13.9509 1.17431 14.0145 1.61552C14.152 2.56811 17.4582 25.0219 24.196 31.76C26.789 34.353 30.7828 35.6676 36.0663 35.6676C40.4917 35.6676 44.5937 34.7402 46.2983 34.2979L51.5864 39.586C51.8625 39.862 52.2243 40 52.5861 40C52.948 40 53.3098 39.862 53.5859 39.586C54.1381 39.0337 54.1381 38.1384 53.5859 37.5864ZM36.0664 32.84C31.5602 32.84 28.239 31.8039 26.1956 29.7604C23.7284 27.2932 21.3271 21.6136 19.2511 13.3357C18.2091 9.18079 17.4943 5.32287 17.1199 3.11963C19.3232 3.49404 23.1809 4.20879 27.3359 5.25095C35.6139 7.32691 41.2935 9.72827 43.7608 12.1955C48.1224 16.557 46.8593 25.6354 45.9426 29.943L37.3703 21.3707V16.0872C37.3703 15.3065 36.7373 14.6735 35.9565 14.6735C35.1758 14.6735 34.5428 15.3065 34.5428 16.0872V18.5431L28.1522 12.1527C27.5999 11.6007 26.705 11.6007 26.1528 12.1527C25.6006 12.7048 25.6006 13.5999 26.1528 14.1521L27.652 15.6514H25.1959C24.4151 15.6514 23.7821 16.2844 23.7821 17.0651C23.7821 17.8459 24.4151 18.4789 25.1959 18.4789H30.4796L37.4344 25.4336H34.9781C34.1973 25.4336 33.5643 26.0666 33.5643 26.8474C33.5643 27.6281 34.1972 28.2611 34.9781 28.2611L40.262 28.2612L43.9453 31.9445C42.0057 32.358 39.0951 32.84 36.0664 32.84Z" fill="#49D626"/>
<rect x="1.79893" y="51.976" width="41.5" height="12.4396" rx="3.25" transform="rotate(-1.62521 1.79893 51.976)" fill="#272726" stroke="white" stroke-width="3.5"/>
<rect x="47.7989" y="50.976" width="41.5" height="12.4396" rx="3.25" transform="rotate(-1.62521 47.7989 50.976)" fill="#272726" stroke="white" stroke-width="3.5"/>
<rect x="45.1488" y="67.0701" width="41.5" height="12.4396" rx="3.25" transform="rotate(-15.2577 45.1488 67.0701)" fill="#272726" stroke="white" stroke-width="3.5"/>
<rect x="49.0062" y="33.8989" width="41.5" height="12.4396" rx="3.25" transform="rotate(5.10771 49.0062 33.8989)" fill="#272726" stroke="white" stroke-width="3.5"/>
<rect x="59.6765" y="42.1721" width="41.5" height="12.4396" rx="3.25" transform="rotate(16.36 59.6765 42.1721)" fill="#272726" stroke="white" stroke-width="3.5"/>
<path d="M8.11985 62.2975C8.47919 60.5389 10.1961 59.4046 11.9547 59.7639L46.2462 66.7707C48.0048 67.13 49.1391 68.8469 48.7797 70.6055L47.5907 76.4249C47.2313 78.1835 45.5144 79.3178 43.7558 78.9585L9.46435 71.9517C7.70576 71.5924 6.57144 69.8754 6.93077 68.1168L8.11985 62.2975Z" fill="#272726" stroke="white" stroke-width="3.5"/>
<rect x="9.07175" y="44.5843" width="41.5" height="12.4396" rx="3.25" transform="rotate(-11.8365 9.07175 44.5843)" fill="#272726" stroke="white" stroke-width="3.5"/>
</svg>
