<svg width="81" height="78" viewBox="0 0 81 78" fill="none" xmlns="http://www.w3.org/2000/svg">
<g clip-path="url(#clip0_1474_125)">
<path d="M62.0159 49.3473C61.4032 48.7898 60.6194 48.4387 59.782 48.3464C58.9446 48.2541 58.0987 48.4257 57.3711 48.8354L56.1054 43.8873V43.7776V43.6801C56.0434 43.5488 55.9577 43.4291 55.8523 43.3266L54.0678 41.6082C53.715 41.2673 53.2959 40.9969 52.8344 40.8123C52.3729 40.6278 51.8781 40.5328 51.3783 40.5328C50.8786 40.5328 50.3838 40.6278 49.9223 40.8123C49.4608 40.9969 49.0416 41.2673 48.6889 41.6082L47.7903 40.7307L64.5472 24.436C64.6945 24.2955 64.8754 24.192 65.0741 24.1346C65.2727 24.0772 65.4829 24.0677 65.6862 24.1069C67.6147 24.507 69.6142 24.461 71.5207 23.9729C73.683 23.4116 75.6544 22.3136 77.238 20.7887C78.8215 19.2638 79.9617 17.3654 80.5447 15.2832C80.947 13.8341 81.063 12.3251 80.8864 10.8348C80.8324 10.3763 80.6443 9.94202 80.3441 9.5824C80.044 9.22277 79.6439 8.95258 79.1906 8.80323C78.7372 8.65388 78.2492 8.63151 77.7831 8.73871C77.3171 8.84591 76.8923 9.07829 76.5579 9.40882L73.0395 12.8701C72.9218 12.9843 72.7819 13.075 72.6276 13.1368C72.4734 13.1987 72.308 13.2306 72.1409 13.2306C71.9738 13.2306 71.8084 13.1987 71.6542 13.1368C71.4999 13.075 71.36 12.9843 71.2423 12.8701L67.6986 9.42101C67.5782 9.30425 67.4836 9.16523 67.4205 9.01232C67.3575 8.85942 67.3272 8.6958 67.3315 8.53132C67.3305 8.36802 67.3636 8.2062 67.4289 8.05545C67.4941 7.90471 67.5901 7.76813 67.7112 7.65382L71.2423 4.19257C71.5797 3.8671 71.8146 3.45635 71.9198 3.00778C72.0251 2.55921 71.9964 2.09112 71.8372 1.65757C71.6759 1.23297 71.3952 0.85992 71.0264 0.580124C70.6576 0.300328 70.2153 0.124813 69.7489 0.0731971C66.7275 -0.250281 63.6862 0.484258 61.181 2.14251C58.6758 3.80075 56.8742 6.27191 56.1054 9.10413C55.5981 10.9358 55.5504 12.8574 55.9662 14.7104C56.0217 14.9067 56.0253 15.1132 55.9767 15.3112C55.9281 15.5092 55.8287 15.6923 55.6878 15.8438L38.7157 32.1019L18.0101 12.1876L17.352 8.97007C17.2068 8.25926 16.8456 7.606 16.3142 7.0932L9.69497 0.719135C9.45988 0.492505 9.18071 0.312717 8.87343 0.190052C8.56614 0.0673861 8.23675 0.00424838 7.90411 0.00424838C7.57146 0.00424838 7.24208 0.0673861 6.93479 0.190052C6.6275 0.312717 6.34833 0.492505 6.11325 0.719135L0.746999 5.88663C0.511652 6.11301 0.324949 6.38184 0.197566 6.67775C0.0701828 6.97366 0.0046167 7.29084 0.0046167 7.61117C0.0046167 7.93149 0.0701828 8.24868 0.197566 8.54458C0.324949 8.84049 0.511652 9.10932 0.746999 9.3357L7.35356 15.7098C7.88609 16.2215 8.56447 16.5693 9.30262 16.7091L12.6439 17.3429L33.3368 37.2816L16.4534 53.6251C16.3061 53.7656 16.1251 53.8691 15.9265 53.9265C15.7279 53.9838 15.5177 53.9933 15.3143 53.9541C13.3858 53.5541 11.3863 53.6 9.47981 54.0882C7.31809 54.6386 5.3439 55.7249 3.75394 57.2389C2.16399 58.7529 1.01378 60.6416 0.417936 62.7169C0.0155463 64.166 -0.100373 65.6751 0.0762173 67.1654C0.133004 67.6188 0.320909 68.0477 0.618519 68.4032C0.91613 68.7587 1.31147 69.0266 1.7595 69.1763C2.21259 69.3307 2.70196 69.3577 3.17038 69.2541C3.6388 69.1505 4.06691 68.9206 4.40465 68.5913L7.92309 65.1301C8.04075 65.0158 8.18073 64.9252 8.33496 64.8633C8.48918 64.8014 8.65461 64.7696 8.82169 64.7696C8.98876 64.7696 9.15419 64.8014 9.30842 64.8633C9.46264 64.9252 9.60262 65.0158 9.72028 65.1301L13.302 68.5791C13.5358 68.8061 13.6676 69.1125 13.669 69.4323C13.67 69.5956 13.6369 69.7574 13.5717 69.9081C13.5065 70.0589 13.4105 70.1954 13.2893 70.3098L9.75825 73.771C9.4185 74.0942 9.18064 74.5034 9.07215 74.9513C8.96366 75.3992 8.98896 75.8675 9.14514 76.3021C9.30132 76.7367 9.582 77.1199 9.95476 77.4074C10.3275 77.695 10.7771 77.8751 11.2517 77.9269C11.7183 77.9756 12.1872 78 12.6565 78.0001C15.4546 77.9988 18.1734 77.1047 20.3878 75.4575C22.6021 73.8102 24.1872 71.5028 24.8951 68.896C25.4024 67.0643 25.4501 65.1427 25.0343 63.2898C24.9788 63.0935 24.9752 62.8869 25.0239 62.6889C25.0725 62.491 25.1718 62.3079 25.3128 62.1563L42.2848 45.8982L43.1961 46.7635C42.8421 47.1032 42.5612 47.5068 42.3696 47.9512C42.178 48.3957 42.0793 48.8721 42.0793 49.3534C42.0793 49.8346 42.178 50.311 42.3696 50.7555C42.5612 51.1999 42.8421 51.6035 43.1961 51.9432L44.9806 53.6251C45.087 53.7266 45.2113 53.8091 45.3476 53.8688H45.4489H45.5628L50.6886 55.0876C50.2071 55.8013 49.9994 56.6544 50.101 57.4998C50.2027 58.3452 50.6074 59.1299 51.2454 59.7188L69.154 76.9276C69.8659 77.6123 70.831 77.9969 71.8372 77.9969C72.8433 77.9969 73.8084 77.6123 74.5203 76.9276L79.8865 71.7601C80.5976 71.0745 80.9969 70.1452 80.9969 69.1763C80.9969 68.2074 80.5976 67.2781 79.8865 66.5926L62.0159 49.3473ZM57.4217 17.5257C57.8654 17.0963 58.1914 16.5675 58.3703 15.9867C58.5493 15.4059 58.5756 14.7915 58.4468 14.1985C58.1194 12.7284 58.1541 11.2049 58.5481 9.75007C59.0112 8.07219 59.9272 6.54224 61.2032 5.31568C62.4792 4.08912 64.0696 3.20965 65.8128 2.76663C67.0116 2.45216 68.2625 2.36523 69.4958 2.5107L65.914 5.97195C65.5601 6.31163 65.2792 6.71525 65.0876 7.15967C64.8959 7.6041 64.7973 8.08058 64.7973 8.56179C64.7973 9.043 64.8959 9.51949 65.0876 9.96391C65.2792 10.4083 65.5601 10.812 65.914 11.1516L69.4958 14.6251C69.8485 14.9659 70.2676 15.2364 70.7292 15.4209C71.1907 15.6055 71.6855 15.7005 72.1852 15.7005C72.6849 15.7005 73.1797 15.6055 73.6412 15.4209C74.1028 15.2364 74.5219 14.9659 74.8747 14.6251L78.469 11.1029C78.5841 12.2872 78.4682 13.4818 78.1273 14.6251C77.6616 16.2898 76.7502 17.8076 75.4842 19.0267C74.2182 20.2458 72.642 21.1235 70.9132 21.5719C69.3913 21.9632 67.7939 21.9966 66.2557 21.6694C65.6381 21.5434 64.9975 21.5676 64.392 21.74C63.7864 21.9123 63.2351 22.2274 62.7879 22.6566L45.8665 39.0001L40.5003 33.8326L57.4217 17.5257ZM23.5789 60.4744C23.1351 60.9038 22.8092 61.4327 22.6302 62.0135C22.4513 62.5942 22.425 63.2087 22.5537 63.8016C22.8811 65.2717 22.8464 66.7952 22.4525 68.2501C21.9879 69.9153 21.0769 71.4337 19.8107 72.653C18.5445 73.8723 16.9677 74.7496 15.2384 75.197C14.0396 75.5114 12.7887 75.5984 11.5554 75.4529L15.0865 71.9795C15.7976 71.2939 16.1969 70.3646 16.1969 69.3957C16.1969 68.4268 15.7976 67.4975 15.0865 66.812L11.5048 63.3751C11.1521 63.0342 10.7329 62.7638 10.2714 62.5792C9.80989 62.3947 9.31508 62.2997 8.81536 62.2997C8.31564 62.2997 7.82083 62.3947 7.35931 62.5792C6.8978 62.7638 6.47865 63.0342 6.12591 63.3751L2.59481 66.8851C2.46078 65.7086 2.5552 64.5183 2.87325 63.3751C3.33449 61.697 4.24818 60.1661 5.52173 58.9376C6.79529 57.709 8.38344 56.8265 10.1253 56.3794C11.6482 55.9943 13.244 55.9609 14.7828 56.2819C15.4005 56.408 16.0411 56.3838 16.6466 56.2114C17.2521 56.0391 17.8034 55.724 18.2506 55.2948L35.134 39.0001L40.5003 44.1676L23.5789 60.4744ZM51.2454 42.961C51.412 42.9601 51.5771 42.9908 51.7313 43.0515C51.8855 43.1121 52.0258 43.2015 52.144 43.3144L53.0426 44.1798L45.8792 51.0779L44.9806 50.2126C44.7449 49.9842 44.6126 49.6753 44.6126 49.3534C44.6126 49.0314 44.7449 48.7225 44.9806 48.4941L50.3595 43.3144C50.5952 43.0893 50.9134 42.9624 51.2454 42.961ZM7.89778 2.43757L10.1253 4.59476L4.77169 9.75007L2.53153 7.60507L7.89778 2.43757ZM9.1634 13.9791L5.65762 10.6276L11.0365 5.44788L14.517 8.81164C14.6965 8.98042 14.8198 9.19677 14.8714 9.4332L15.4789 12.3826L12.859 14.9054L9.79622 14.3204C9.55069 14.2708 9.32603 14.152 9.15075 13.9791H9.1634ZM15.0739 16.2216L16.8584 14.5032L46.8284 43.3144L44.9806 45.0938L15.0739 16.2216ZM54.1564 46.5685L55.2322 50.7001L52.7009 53.1376L48.4104 52.1016L54.1564 46.5685ZM78.102 70.0294L72.7231 75.2091C72.486 75.4361 72.1652 75.5635 71.8308 75.5635C71.4965 75.5635 71.1757 75.4361 70.9386 75.2091L53.0426 57.9638C52.8088 57.7368 52.677 57.4304 52.6756 57.1107C52.6746 56.9503 52.7066 56.7913 52.7695 56.6428C52.8325 56.4943 52.9253 56.3593 53.0426 56.2454L58.4089 51.0779C58.5271 50.9649 58.6674 50.8756 58.8216 50.8149C58.9758 50.7543 59.1409 50.7235 59.3075 50.7244C59.6395 50.7258 59.9577 50.8527 60.1934 51.0779L78.102 68.311C78.2193 68.4249 78.3121 68.56 78.3751 68.7084C78.4381 68.8569 78.47 69.0159 78.469 69.1763C78.4676 69.496 78.3358 69.8024 78.102 70.0294Z" fill="white"/>
<path d="M56.1688 56.6718C56.0505 56.5601 55.8915 56.4976 55.7259 56.4976C55.5602 56.4976 55.4012 56.5601 55.2829 56.6718C55.2236 56.7284 55.1765 56.7958 55.1444 56.8701C55.1122 56.9443 55.0957 57.024 55.0957 57.1044C55.0957 57.1849 55.1122 57.2645 55.1444 57.3388C55.1765 57.413 55.2236 57.4804 55.2829 57.5371L71.3816 73.0518C71.5024 73.1684 71.6662 73.2342 71.8373 73.2346C71.92 73.2341 72.0019 73.2177 72.0779 73.1863C72.154 73.1549 72.2228 73.1091 72.2802 73.0518C72.3395 72.9951 72.3866 72.9277 72.4187 72.8534C72.4509 72.7792 72.4674 72.6995 72.4674 72.6191C72.4674 72.5387 72.4509 72.459 72.4187 72.3847C72.3866 72.3105 72.3395 72.2431 72.2802 72.1864L56.1688 56.6718Z" fill="#386ACB"/>
<path d="M57.9656 54.9534C57.8464 54.8386 57.6848 54.7742 57.5163 54.7742C57.3477 54.7742 57.1861 54.8386 57.067 54.9534C56.9478 55.0681 56.8809 55.2238 56.8809 55.386C56.8809 55.5483 56.9478 55.7039 57.067 55.8187L73.1784 71.3212C73.2358 71.3786 73.3046 71.4243 73.3807 71.4557C73.4567 71.4871 73.5386 71.5035 73.6213 71.504C73.7043 71.505 73.7866 71.4892 73.8629 71.4577C73.9392 71.4263 74.0078 71.3797 74.0643 71.3212C74.1248 71.2665 74.1731 71.2004 74.2061 71.127C74.2391 71.0537 74.2561 70.9746 74.2561 70.8946C74.2561 70.8147 74.2391 70.7356 74.2061 70.6622C74.1731 70.5889 74.1248 70.5228 74.0643 70.4681L57.9656 54.9534Z" fill="#386ACB"/>
<path d="M59.7504 53.2349C59.6916 53.1778 59.6216 53.1325 59.5445 53.1016C59.4673 53.0706 59.3846 53.0547 59.3011 53.0547C59.2176 53.0547 59.1348 53.0706 59.0577 53.1016C58.9806 53.1325 58.9106 53.1778 58.8518 53.2349C58.7358 53.3488 58.6709 53.502 58.6709 53.6615C58.6709 53.821 58.7358 53.9742 58.8518 54.0881L74.9632 69.6028C75.0839 69.7194 75.2478 69.7852 75.4188 69.7856C75.5857 69.7833 75.745 69.7176 75.8618 69.6028C75.9785 69.4868 76.0438 69.3316 76.0438 69.1701C76.0438 69.0086 75.9785 68.8534 75.8618 68.7374L59.7504 53.2349Z" fill="#386ACB"/>
</g>
<defs>
<clipPath id="clip0_1474_125">
<rect width="81" height="78" fill="white"/>
</clipPath>
</defs>
</svg>
