<svg width="90" height="90" viewBox="0 0 90 90" fill="none" xmlns="http://www.w3.org/2000/svg">
<path d="M60.4253 54H47.5747C47.0657 54.0009 46.5679 53.8506 46.1444 53.5681C45.7209 53.2856 45.3908 52.8837 45.1959 52.4132C45.001 51.9428 44.9501 51.4251 45.0496 50.9256C45.1492 50.4262 45.3947 49.9676 45.7551 49.608L54.221 41.1429H47.5747C46.8931 41.1429 46.2394 40.8719 45.7574 40.3897C45.2754 39.9075 45.0046 39.2534 45.0046 38.5714C45.0046 37.8894 45.2754 37.2354 45.7574 36.7532C46.2394 36.2709 46.8931 36 47.5747 36H60.4253C60.9343 35.9991 61.4321 36.1494 61.8556 36.4319C62.2791 36.7144 62.6092 37.1163 62.8041 37.5868C62.999 38.0572 63.0499 38.5749 62.9504 39.0744C62.8508 39.5738 62.6053 40.0324 62.2449 40.392L53.779 48.8571H60.4253C61.1069 48.8571 61.7606 49.1281 62.2426 49.6103C62.7246 50.0925 62.9954 50.7466 62.9954 51.4286C62.9954 52.1106 62.7246 52.7646 62.2426 53.2468C61.7606 53.7291 61.1069 54 60.4253 54Z" fill="#A77DFF"/>
<path d="M80.3539 36H69.6423C69.2189 35.9999 68.8051 35.8743 68.453 35.6391C68.1009 35.4039 67.8264 35.0697 67.6641 34.6785C67.5018 34.2874 67.459 33.8569 67.5412 33.4414C67.6233 33.026 67.8266 32.6442 68.1256 32.3443L75.1823 25.2857H69.6423C69.0741 25.2857 68.5292 25.06 68.1275 24.6581C67.7257 24.2562 67.5 23.7112 67.5 23.1429C67.5 22.5745 67.7257 22.0295 68.1275 21.6276C68.5292 21.2258 69.0741 21 69.6423 21H80.3539C80.7781 20.9992 81.1931 21.1245 81.5461 21.3599C81.8991 21.5953 82.1742 21.9303 82.3367 22.3223C82.4992 22.7143 82.5416 23.1458 82.4586 23.562C82.3756 23.9781 82.171 24.3603 81.8706 24.66L74.8138 31.7143H80.3539C80.922 31.7143 81.4669 31.9401 81.8687 32.3419C82.2705 32.7438 82.4962 33.2888 82.4962 33.8571C82.4962 34.4255 82.2705 34.9705 81.8687 35.3724C81.4669 35.7742 80.922 36 80.3539 36Z" fill="#A77DFF"/>
<path d="M41.5691 89.112C36.8482 89.1138 32.1785 88.1341 27.8565 86.2351C23.5344 84.336 19.6543 81.5591 16.4626 78.0806C13.2709 74.6022 10.8373 70.4981 9.3162 66.029C7.79511 61.5598 7.2198 56.8233 7.6268 52.12C8.0338 47.4167 9.4142 42.8493 11.6804 38.7079C13.9466 34.5666 17.049 30.9415 20.7908 28.0631C24.5326 25.1846 28.832 23.1155 33.4161 21.9871C38.0001 20.8587 42.7687 20.6957 47.4191 21.5085C47.9429 21.6003 48.4172 21.8746 48.758 22.2828C49.0987 22.691 49.2839 23.2067 49.2807 23.7384C49.2774 24.2701 49.086 24.7835 48.7403 25.1875C48.3946 25.5916 47.917 25.8601 47.3921 25.9455C44.2431 26.462 41.2607 27.7155 38.6881 29.6036C36.1155 31.4918 34.0256 33.9612 32.5887 36.8105C31.1519 39.6599 30.4088 42.8085 30.42 45.9996C30.4312 49.1907 31.1964 52.334 32.6532 55.1732C34.1101 58.0123 36.2173 60.467 38.803 62.3371C41.3888 64.2071 44.3799 65.4396 47.5325 65.934C50.6851 66.4284 53.91 66.1707 56.9441 65.182C59.9781 64.1932 62.7356 62.5014 64.9916 60.2445C68.0044 57.257 69.9953 53.3933 70.6796 49.206C70.7648 48.6805 71.0335 48.2022 71.4381 47.8562C71.8426 47.5101 72.3568 47.3187 72.8891 47.316C73.4183 47.3166 73.9304 47.5037 74.3353 47.8444C74.7402 48.1851 75.0121 48.6577 75.1031 49.179C75.9614 54.0735 75.7381 59.0965 74.4488 63.8955C73.1595 68.6944 70.8355 73.1531 67.6399 76.9584C64.4444 80.7638 60.4547 83.8236 55.9508 85.9232C51.447 88.0228 46.5383 89.1112 41.5691 89.112ZM35.9531 26.0445C30.6865 27.0664 25.7973 29.5023 21.8095 33.0911C17.8218 36.6799 14.8858 41.2862 13.3165 46.4164C11.7471 51.5466 11.6034 57.0071 12.9008 62.2127C14.1983 67.4183 16.8879 72.1727 20.6814 75.9662C24.4749 79.7597 29.2293 82.4494 34.4349 83.7468C39.6405 85.0442 45.1011 84.9006 50.2312 83.3312C55.3614 81.7618 59.9678 78.8259 63.5565 74.8381C67.1453 70.8504 69.5812 65.9611 70.6031 60.6945C69.8779 61.6681 69.0839 62.5884 68.2271 63.4485C65.9272 65.7485 63.1967 67.5729 60.1916 68.8176C57.1866 70.0624 53.9658 70.703 50.7131 70.703C47.4605 70.703 44.2397 70.0624 41.2346 68.8176C38.2296 67.5729 35.4991 65.7485 33.1991 63.4485C28.5541 58.8035 25.9446 52.5035 25.9446 45.9345C25.9446 39.3655 28.5541 33.0655 33.1991 28.4205C34.0581 27.5625 34.9785 26.7684 35.9531 26.0445Z" fill="white"/>
</svg>
