<svg width="50" height="50" viewBox="0 0 50 50" fill="none" xmlns="http://www.w3.org/2000/svg">
<g clip-path="url(#clip0_110_17)">
<path d="M25 49.2188C38.3594 49.2188 49.2188 38.3594 49.2188 25C49.2188 11.6406 38.3594 0.78125 25 0.78125C11.6406 0.78125 0.78125 11.6406 0.78125 25C0.78125 38.3594 11.6406 49.2188 25 49.2188ZM6.25 34.6484L16.0938 34.5703C17.1875 38.5156 19.0234 42.3437 21.5234 45.7812C14.8437 44.6875 9.25781 40.4297 6.25 34.6484ZM18.5937 18.3594H30.8594C31.7578 22.6562 31.7578 27.0703 30.9375 31.3672L18.5937 31.4453C17.6953 27.1094 17.6953 22.6562 18.5937 18.3594ZM24.7266 44.8828C22.2656 41.7188 20.4687 38.2422 19.375 34.5703L30.1172 34.4922C28.9844 38.1641 27.1875 41.6797 24.7266 44.8828ZM27.8516 45.8984C30.4297 42.3828 32.2656 38.5156 33.3594 34.4531L43.8672 34.375C40.8203 40.5078 34.8828 44.9219 27.8516 45.8984ZM46.0938 25C46.0938 27.1875 45.7422 29.2969 45.1562 31.25L34.1016 31.3281C34.8828 27.0312 34.8437 22.6562 34.0234 18.3594H45C45.7031 20.4297 46.0938 22.6953 46.0938 25ZM43.6719 15.2344H33.2812C32.1484 11.3281 30.3516 7.53906 27.8516 4.10156C34.7656 5.03906 40.5859 9.29688 43.6719 15.2344ZM30.0391 15.2344H19.4141C20.5469 11.6406 22.3047 8.24219 24.7266 5.11719C27.1484 8.24219 28.9063 11.6406 30.0391 15.2344ZM21.5234 4.21875C19.0625 7.61719 17.2656 11.3281 16.1719 15.2344H6.32813C9.33594 9.49219 14.8828 5.3125 21.5234 4.21875ZM15.4297 18.3594C14.6094 22.6953 14.6094 27.1094 15.3906 31.4453L4.96094 31.5234C4.25781 29.4531 3.90625 27.2656 3.90625 25C3.90625 22.6953 4.29688 20.4297 5 18.3594H15.4297Z" fill="white"/>
</g>
<defs>
<clipPath id="clip0_110_17">
<rect width="50" height="50" fill="white"/>
</clipPath>
</defs>
</svg>
