<svg width="48" height="48" viewBox="0 0 48 48" fill="none" xmlns="http://www.w3.org/2000/svg">
<path d="M38.154 9.856C34.382 6.082 29.366 4.002 24.022 4C13.01 4 4.048 12.958 4.044 23.97C4.042 27.49 4.962 30.926 6.71 33.954L4 44L14.466 41.526C17.384 43.118 20.668 43.956 24.012 43.958H24.02C35.03 43.958 43.992 34.998 43.998 23.988C44.002 18.65 41.926 13.632 38.154 9.856ZM24.014 39.958C21.348 39.956 18.708 39.284 16.382 38.014L15.036 37.28L13.546 37.632L9.61 38.562L10.572 34.994L11.004 33.39L10.174 31.952C8.778 29.536 8.042 26.776 8.044 23.97C8.048 15.166 15.214 8 24.02 8C28.292 8.002 32.306 9.666 35.324 12.682C38.342 15.702 40.002 19.716 39.998 23.984C39.994 32.792 32.826 39.958 24.014 39.958Z" fill="white"/>
<path d="M42 24C42 33.942 33.942 42 24 42C20.734 42 17.672 41.13 15.03 39.61L8 40L9.074 34.064C7.134 31.192 6 27.728 6 24C6 14.058 14.058 6 24 6C33.942 6 42 14.058 42 24Z" fill="white"/>
<path d="M33.7961 31.108C33.3801 32.274 31.3421 33.398 30.4261 33.48C29.5101 33.564 28.6521 33.894 24.4361 32.232C19.3621 30.232 16.1581 25.03 15.9101 24.698C15.6601 24.364 13.8721 21.992 13.8721 19.536C13.8721 17.08 15.1621 15.872 15.6201 15.374C16.0781 14.874 16.6181 14.75 16.9521 14.75C17.2841 14.75 17.6181 14.75 17.9081 14.762C18.2641 14.776 18.6581 14.794 19.0321 15.624C19.4761 16.612 20.4461 19.08 20.5701 19.33C20.6941 19.58 20.7781 19.872 20.6121 20.204C20.4461 20.536 20.3621 20.744 20.1141 21.036C19.8641 21.328 19.5901 21.686 19.3661 21.91C19.1161 22.158 18.8561 22.43 19.1461 22.928C19.4381 23.428 20.4381 25.062 21.9221 26.384C23.8301 28.084 25.4361 28.61 25.9361 28.862C26.4361 29.112 26.7261 29.07 27.0181 28.736C27.3101 28.404 28.2661 27.28 28.5981 26.78C28.9301 26.28 29.2641 26.364 29.7221 26.53C30.1801 26.696 32.6341 27.904 33.1321 28.154C33.6321 28.404 33.9641 28.528 34.0881 28.736C34.2121 28.942 34.2121 29.942 33.7961 31.108Z" fill="#2A2A2B"/>
</svg>
